<svg width="24" height="24" viewBox="0 0 24 24" fill="none" xmlns="http://www.w3.org/2000/svg">
<path fill-rule="evenodd" clip-rule="evenodd" d="M1.99988 6.32C1.99988 4.28352 1.99988 3.2653 2.63253 2.63265C3.26518 2 4.2834 2 6.31988 2H6.67988C8.71635 2 9.73457 2 10.3672 2.63265C10.9999 3.2653 10.9999 4.28352 10.9999 6.32V6.68C10.9999 8.71648 10.9999 9.73469 10.3672 10.3674C9.73457 11 8.71635 11 6.67988 11H6.31988C4.2834 11 3.26518 11 2.63253 10.3674C1.99988 9.73469 1.99988 8.71648 1.99988 6.68V6.32ZM6.78865 8.48377C4.7374 8.48377 3.56742 7.07752 3.51867 4.73752H4.54617C4.57992 6.45502 5.3374 7.18252 5.9374 7.33252V4.73752H6.90494V6.21877C7.49744 6.15502 8.11986 5.48002 8.32986 4.73752H9.29738C9.13613 5.65252 8.46113 6.32752 7.98113 6.60502C8.46113 6.83002 9.22992 7.41877 9.52242 8.48377H8.45738C8.22863 7.77127 7.65869 7.22002 6.90494 7.14502V8.48377H6.78865ZM17.4999 2C15.0182 2 12.9999 4.01833 12.9999 6.5C12.9999 8.98155 15.018 10.9998 17.4996 11C18.4045 11.0015 19.2886 10.7286 20.0352 10.2173L20.224 10.0814L19.3938 9.11561L19.241 9.21493C18.722 9.54929 18.1173 9.72684 17.4999 9.7263C15.7212 9.7263 14.2736 8.27868 14.2736 6.5C14.2736 4.72131 15.7212 3.27369 17.4999 3.27369C17.7751 3.27369 18.0424 3.30835 18.2976 3.37353C19.6484 3.7185 20.6613 4.91842 20.7232 6.36008C20.7252 6.40648 20.7262 6.45312 20.7262 6.5C20.7262 6.72912 20.7007 6.96204 20.6509 7.1914C20.606 7.37303 20.525 7.47515 20.4471 7.5315C20.367 7.58952 20.2778 7.60814 20.2042 7.60248C20.1243 7.5959 20.0421 7.56416 19.9816 7.5055C19.9248 7.45039 19.8734 7.35852 19.8726 7.20161V6.49978C19.8719 5.87077 19.6217 5.26772 19.1769 4.82295C18.7322 4.37817 18.1287 4.12799 17.4997 4.1273C16.8707 4.12799 16.2676 4.37817 15.8228 4.82295C15.3781 5.26772 15.1279 5.8712 15.1272 6.50021C15.1279 7.12922 15.3781 7.73227 15.8228 8.17704C16.2676 8.62182 16.8709 8.872 17.4999 8.87269C18.0601 8.87269 18.5898 8.67971 19.015 8.32492C19.1403 8.47005 19.2911 8.59189 19.4607 8.68404C19.6979 8.81294 19.964 8.87949 20.2339 8.87747C20.5904 8.87729 20.9417 8.75822 21.2258 8.54293C21.5191 8.3199 21.7337 8.00125 21.8513 7.6265L21.8517 7.62492C21.8615 7.59273 21.8745 7.54359 21.8843 7.50545L21.8972 7.45444L21.9012 7.43817L21.9025 7.43253L21.9033 7.42899L21.9042 7.42466L21.9046 7.42266C21.9713 7.1338 21.9999 6.84678 21.9999 6.5C21.9999 4.01833 19.9815 2 17.4999 2ZM18.2766 7.27669C18.4826 7.07066 18.5985 6.79135 18.5989 6.5C18.5985 6.20864 18.4826 5.92933 18.2766 5.72331C18.0705 5.51728 17.7912 5.40138 17.4999 5.401C17.2085 5.40138 16.9292 5.51728 16.7232 5.72331C16.5172 5.92933 16.4013 6.20864 16.4009 6.5C16.4013 6.79135 16.5172 7.07066 16.7232 7.27669C16.9292 7.48271 17.2085 7.59862 17.4999 7.599C17.7912 7.59862 18.0705 7.48271 18.2766 7.27669ZM5.15861 13.0776C5.98857 12.5985 7.01114 12.5985 7.84111 13.0776L9.65861 14.127C10.4886 14.6062 10.9999 15.4917 10.9999 16.4501V18.5488C10.9999 19.5071 10.4886 20.3927 9.65861 20.8719L7.84111 21.9212C7.01114 22.4004 5.98857 22.4004 5.15861 21.9212L3.3411 20.8719C3.13279 20.7516 2.90187 20.5149 2.70664 20.2846C2.49994 20.0407 2.68289 19.689 3.00256 19.689H3.82205C4.17313 19.689 4.51801 19.7814 4.82205 19.9569L5.92503 20.5937C6.28074 20.7991 6.71898 20.7991 7.07468 20.5937L8.89218 19.5444C9.24788 19.339 9.467 18.9595 9.467 18.5488V16.4501C9.467 16.0394 9.24788 15.6598 8.89218 15.4545L7.07468 14.4051C6.71898 14.1998 6.28074 14.1998 5.92503 14.4051L4.82177 15.0421C4.51774 15.2176 4.17285 15.3101 3.82177 15.3101H3.00243C2.68278 15.3101 2.49983 14.9583 2.70651 14.7145C2.90177 14.4841 3.13274 14.2473 3.3411 14.127L5.15861 13.0776ZM5.60621 16.5998C5.60621 16.9312 5.33758 17.1998 5.00621 17.1998H2.49502C2.16365 17.1998 1.89502 16.9312 1.89502 16.5998V16.3998C1.89502 16.0684 2.16365 15.7998 2.49502 15.7998H5.00621C5.33758 15.7998 5.60621 16.0684 5.60621 16.3998V16.5998ZM7.01722 18.5998C7.01722 18.9312 6.74859 19.1998 6.41722 19.1998H2.49502C2.16365 19.1998 1.89502 18.9312 1.89502 18.5998V18.3998C1.89502 18.0684 2.16365 17.7998 2.49502 17.7998H6.41722C6.74859 17.7998 7.01722 18.0684 7.01722 18.3998V18.5998ZM12.9999 17.3191C12.9999 15.2839 12.9999 14.2663 13.633 13.6332C14.2662 13 15.2838 13 17.319 13H17.6808C19.716 13 20.7336 13 21.3667 13.6332C21.9999 14.2663 21.9999 15.2839 21.9999 17.3191V17.6809C21.9999 19.7161 21.9999 20.7337 21.3667 21.3668C20.7336 22 19.716 22 17.6808 22H17.319C15.2838 22 14.2662 22 13.633 21.3668C12.9999 20.7337 12.9999 19.7161 12.9999 17.6809V17.3191ZM18.5718 16.9256C18.2959 17.2015 17.916 17.3734 17.4954 17.3734C17.0748 17.3734 16.6949 17.2015 16.419 16.9256C16.1432 16.6498 15.9713 16.2699 15.9713 15.8493C15.9713 15.4287 16.1432 15.0488 16.419 14.7729C16.6949 14.497 17.0748 14.3251 17.4954 14.3251C17.916 14.3251 18.2959 14.497 18.5718 14.7729C18.8477 15.0488 19.0195 15.4287 19.0195 15.8493C19.0195 16.2699 18.8477 16.6498 18.5718 16.9256ZM17.4954 15.1528C17.3055 15.1528 17.1336 15.2297 17.007 15.3563C16.8803 15.4829 16.8035 15.6548 16.8035 15.8447C16.8035 16.0347 16.8803 16.2065 17.007 16.3332C17.1336 16.4598 17.3055 16.5367 17.4954 16.5367C17.6854 16.5367 17.8572 16.4598 17.9839 16.3332C18.1105 16.2065 18.1874 16.0347 18.1874 15.8447C18.1874 15.6548 18.1105 15.4829 17.9839 15.3563C17.8572 15.2342 17.6854 15.1528 17.4954 15.1528ZM19.0964 17.3779L19.5442 17.9885C19.5668 18.0201 19.5623 18.0608 19.5306 18.0834C19.1552 18.391 18.7165 18.5945 18.2597 18.703L19.1236 20.3674C19.1462 20.4171 19.1145 20.4714 19.0602 20.4714H18.1376C18.1105 20.4714 18.0834 20.4533 18.0698 20.4262L17.4954 19.0513L16.9165 20.4216C16.9075 20.4488 16.8803 20.4669 16.8487 20.4669H15.9261C15.8718 20.4669 15.8401 20.4081 15.8628 20.3628L16.7266 18.703C16.2698 18.5945 15.8356 18.391 15.4557 18.0834C15.4286 18.0608 15.4195 18.0156 15.4422 17.9885L15.8899 17.3779C15.917 17.3417 15.9623 17.3372 15.9939 17.3643C16.4145 17.7216 16.9346 17.9568 17.4909 17.9568C18.0472 17.9568 18.5628 17.7262 18.9879 17.3643C19.0241 17.3372 19.0738 17.3417 19.0964 17.3779Z" fill="#262633"/>
</svg>
