<svg width="25" height="24" viewBox="0 0 25 24" xmlns="http://www.w3.org/2000/svg"><path d="M18.5289 5.92561C16.793 4.77973 14.7363 4.14349 12.5 4.14349C10.2359 4.14349 8.22996 4.77618 6.48047 5.94922C6.32104 6.05668 6.12891 6.11932 5.92218 6.11932C5.3699 6.11932 4.92218 5.67161 4.92218 5.11932C4.92218 4.76729 5.10409 4.45774 5.37903 4.27955L5.375 4.27344C7.38097 3.00697 9.95202 2.14349 12.5 2.14349C15.048 2.14349 17.5175 2.93275 19.5234 4.19922L19.5215 4.20294C19.8742 4.35747 20.1205 4.70962 20.1205 5.11932C20.1205 5.67161 19.6728 6.11932 19.1205 6.11932C18.8992 6.11932 18.6946 6.04739 18.5289 5.92561Z" fill="#262633"/><path d="M5.5 15.1435C5.5 11.2775 8.63401 8.14349 12.5 8.14349C16.366 8.14349 19.5 11.2775 19.5 15.1435C19.5 15.6958 19.0523 16.1435 18.5 16.1435C17.949 16.1435 17.5021 15.6978 17.5 15.1473L17.5 15.1435C17.5 12.3821 15.2614 10.1435 12.5 10.1435C10.4471 10.1435 8.68311 11.3807 7.91311 13.1503C7.90151 13.1721 7.89064 13.1946 7.88052 13.2176C7.43634 14.2284 7.30267 15.55 7.43472 16.9345C7.5684 18.336 7.9811 19.8802 8.71049 21.3754C8.95262 21.8718 9.5513 22.0779 10.0477 21.8358C10.5441 21.5936 10.7502 20.995 10.508 20.4986C9.88318 19.2177 9.53646 17.9061 9.42568 16.7446C9.31696 15.6046 9.44141 14.6796 9.68623 14.0818L9.69255 14.0838C10.1208 12.9499 11.2162 12.1435 12.5 12.1435C14.1553 12.1435 15.4975 13.4841 15.5 15.1388L15.5 15.1435C15.5 16.8003 16.8431 18.1435 18.5 18.1435C20.1569 18.1435 21.5 16.8003 21.5 15.1435C21.5 10.1729 17.4706 6.14349 12.5 6.14349C7.52944 6.14349 3.5 10.1729 3.5 15.1435C3.5 15.6958 3.94772 16.1435 4.5 16.1435C5.05228 16.1435 5.5 15.6958 5.5 15.1435Z" fill="#262633"/><path d="M12.5 14.1435C13.0523 14.1435 13.5 14.5912 13.5 15.1435C13.5 17.2341 14.4152 19.1096 15.8701 20.3938C16.2842 20.7592 16.3236 21.3912 15.9581 21.8052C15.5926 22.2193 14.9607 22.2587 14.5466 21.8932C12.6798 20.2456 11.5 17.8317 11.5 15.1435C11.5 14.5912 11.9477 14.1435 12.5 14.1435Z" fill="#262633"/></svg>