<svg width="233" height="161" fill="none" xmlns="http://www.w3.org/2000/svg"><path d="M61.056 137.417l2.141 21.691L44.01 161l-2.142-21.69-40.467 3.99L0 129.118l32.642-67.667 20.719-2.042 6.213 62.992 10.988-1.084 1.482 15.017-10.988 1.083zm-20.67-13.13l-3.76-38.101-19.605 40.405 23.365-2.304zM115.338 155.365c-5.099.504-9.88-.006-14.332-1.532-4.457-1.525-8.417-4.202-11.885-8.025-3.467-3.822-6.375-8.896-8.734-15.215-2.36-6.319-3.979-14.021-4.875-23.11-.897-9.084-.803-16.934.274-23.546 1.077-6.612 2.945-12.128 5.597-16.56 2.652-4.427 6.014-7.801 10.092-10.123 4.078-2.322 8.666-3.736 13.765-4.234 5.005-.492 9.712 0 14.12 1.488 4.401 1.488 8.336 4.115 11.797 7.894 3.462 3.78 6.344 8.803 8.648 15.085 2.303 6.282 3.897 13.915 4.788 22.905.896 9.083.828 16.959-.2 23.608-1.027 6.655-2.87 12.215-5.516 16.691-2.646 4.476-5.983 7.913-10.004 10.322-4.016 2.41-8.53 3.86-13.535 4.352zm-1.675-15.558c2.41-.237 4.483-1.027 6.226-2.372 1.737-1.345 3.075-3.462 4.003-6.363.928-2.901 1.469-6.649 1.625-11.25.156-4.601-.1-10.285-.772-17.052-.66-6.674-1.513-12.252-2.565-16.735-1.052-4.482-2.291-8.056-3.723-10.727-1.432-2.664-3.113-4.513-5.037-5.54-1.923-1.028-4.14-1.42-6.643-1.171-2.502.249-4.625 1.065-6.356 2.453-1.737 1.388-3.094 3.536-4.065 6.437-.978 2.901-1.544 6.662-1.7 11.263-.156 4.6.1 10.241.753 16.915.666 6.767 1.526 12.395 2.578 16.878 1.052 4.482 2.341 8.056 3.866 10.708 1.525 2.659 3.25 4.476 5.174 5.46 1.923.978 4.133 1.345 6.636 1.096zM214.016 122.326l2.142 21.69-19.188 1.893-2.148-21.691-40.467 3.991-1.401-14.182 32.642-67.668 20.719-2.042 6.213 62.992 10.989-1.083 1.481 15.016-10.982 1.084zm-20.676-13.124L189.58 71.1l-19.605 40.405 23.365-2.303z" fill="#E6F0FF"/><path d="M37.43 43.43l21.55 80.134s47.477-13.694 72.842 4.269c.271 6.68 13.84 5.095 13.624-.96 13.243-19.303 52.204-24.83 52.204-24.83l1.411-3.037-34.144-72.412s-28.507 4.268-47.588 26.714C94.89 41.908 39.301 38.85 39.301 38.85l-1.87 4.581z" fill="#003AA0"/><path d="M39.322 38.843l21.549 80.134s48.408-12.575 73.704 7.604c0 4.991 8.3 3.504 8.272-.611 12.679-20.896 56.235-26.971 56.235-26.971L166.759 22.68s-31.406 4.47-50.487 26.915c-27.847-14.139-76.95-10.753-76.95-10.753z" fill="#04E"/><path d="M68.044 109.912s57.765-3.072 71.063 14.486c18.622-29.619 59.586-39.19 59.586-39.19l-30.502-64.55s-34.582 5.318-51.961 28.02c-26.957-19.685-71.64-16.44-71.64-16.44l23.454 77.674z" fill="#1E87FF"/><path d="M51.647 21.582l24.127 78.751s48.249-.452 63.048 17.983c3.184-21.396 57.355-52.12 57.355-52.12L167.955 7.249s-34.138 10.017-51.891 36.647c-16.391-19.13-64.417-22.314-64.417-22.314z" fill="#fff"/><path d="M156.867 93.716c-16.182-28.07-24.03-51.766-27.082-65.21-4.219 3.913-10.35 10.309-13.728 15.383l22.758 74.427c4.233-9.697 4.817-12.783 18.052-24.6z" fill="#82C8FF"/><path d="M51.647 21.582l24.127 78.751s48.249-.452 63.048 17.983c3.184-21.396 57.355-52.12 57.355-52.12L167.955 7.249s-34.138 10.017-51.891 36.647c-16.391-19.13-64.417-22.314-64.417-22.314z" stroke="#82C8FF" stroke-width="1.701" stroke-miterlimit="10" stroke-linecap="round" stroke-linejoin="round"/><path d="M65.848 34.908c25.31 2.356 43.104 12.234 43.104 12.234l6.25 20.006s-14.41-8.766-43.237-11.796l-6.117-20.444z" fill="#FC0"/><path d="M73.842 65.598c26.699 2.1 43.862 10.358 43.862 10.358M77.366 76.157c26.7 2.1 43.862 9.74 43.862 9.74M80.897 86.71c26.7 2.099 43.863 9.12 43.863 9.12M127.436 49.18s10.83-13.146 37.766-25.575M131.425 60.892s11.261-15.077 38.197-27.506M135.409 72.611s11.692-17.016 38.628-29.445M139.392 84.325s12.123-18.95 39.059-31.379M141.262 99.103s14.667-23.947 41.603-36.376" stroke="#1E87FF" stroke-width="1.701" stroke-miterlimit="10" stroke-linecap="round" stroke-linejoin="round"/><path d="M116.056 44.007L138.099 115c.104.334.591.292.639-.055 1.14-8.516 4.984-13.354 6.284-14.772a.327.327 0 00-.194-.542l-3.949-.605a.328.328 0 01-.271-.396l2.371-11.038a.33.33 0 00-.223-.383l-3.149-.966a.324.324 0 01-.222-.39l2.176-9.495a.33.33 0 00-.327-.403l-4.713.07a.33.33 0 01-.32-.431l2.412-7.146a.328.328 0 00-.347-.431l-5.228.584a.332.332 0 01-.34-.46l4.608-10.46c.119-.265-.139-.536-.41-.446l-8.863 3.031a.33.33 0 01-.424-.396l3.365-12.088a.324.324 0 00-.396-.403l-4.908 1.272a.33.33 0 01-.403-.397l1.946-7.868c.077-.3-.271-.529-.521-.341l-5.026 3.879a.33.33 0 01-.528-.209l1.613-5.936c-.056-.313-.48-.376-.619-.09l-6.062 6.075a.336.336 0 00-.014.243z" fill="#fff"/><path d="M115.201 42.93l23.614 75.379" stroke="#82C8FF" stroke-width="1.701" stroke-miterlimit="10" stroke-linecap="round" stroke-linejoin="round"/><path d="M12.684 24.655a2.454 2.454 0 100-4.908 2.454 2.454 0 000 4.908zM37.265 10.016l-.216 3.468M37.82 1l-.215 3.469M40.212 7.409l3.468.215M31.189 6.853l3.469.216M228.222 75.608a3.079 3.079 0 100-6.158 3.079 3.079 0 000 6.158zM170.068 150.048l-1.071 4.88M172.848 137.362l-1.07 4.88M174.829 146.997l4.873 1.071M162.143 144.223l4.873 1.071" stroke="#02286F" stroke-width="1.701" stroke-miterlimit="10" stroke-linecap="round" stroke-linejoin="round"/></svg>
