<svg width="24" height="24" viewBox="0 0 24 24" xmlns="http://www.w3.org/2000/svg"><path d="M6.9628 2.00001L14.373 2.00001C14.4705 1.99997 14.5908 1.99992 14.6983 2.00785C14.8256 2.01724 15.0012 2.04107 15.1909 2.12309C15.4421 2.23163 15.6588 2.40682 15.8176 2.62968C15.9376 2.79807 15.9976 2.96471 16.0335 3.08728C16.0638 3.19071 16.0889 3.30834 16.1093 3.40374L17.3085 9H15.2631L14.1917 4.00001H7.2371L8.90649 11.7905C9.03988 12.413 8.56533 13 7.92869 13C7.45715 13 7.04968 12.6706 6.95088 12.2095L5.22402 4.15086C5.19354 4.0089 5.15856 3.8459 5.1407 3.70214C5.12069 3.54112 5.10551 3.29433 5.1964 3.02322C5.3109 2.6817 5.54446 2.39279 5.8544 2.20928C6.10045 2.0636 6.34495 2.02674 6.50658 2.01256C6.65089 1.9999 6.81761 1.99996 6.9628 2.00001Z" fill="#21201F"></path><path d="M5.45473 10H1V13H2.5L3.60315 19.3427C3.76977 20.3007 4.60123 21 5.57357 21H18.3763C19.3429 21 20.1711 20.3088 20.344 19.3578L21.5 13H23V10H9.54554L9.88434 11.5811C9.91458 11.7222 9.92919 11.8623 9.9295 12H19.649L18.3763 19H5.57357L4.3561 12H5.88331L5.45473 10Z" fill="#21201F"></path></svg>