<svg width="20" height="18" viewBox="0 0 20 18" xmlns="http://www.w3.org/2000/svg" > <path d="M11 9.98669H14C16.2086 9.98669 17.9991 8.19676 18 5.9884H2C2.00092 8.19676 3.79143 9.98669 6 9.98669H9V8.98669H11V9.98669ZM9 11.9867H6C4.46329 11.9867 3.06151 11.409 2 10.4589V15.9884H18V10.4589C16.9385 11.409 15.5367 11.9867 14 11.9867H11V12.9867H9V11.9867ZM5.48016 3.9884V3C5.48016 1.34315 6.82331 0 8.48016 0H11.5198C13.1767 0 14.5198 1.34315 14.5198 3V3.9884H18.5C19.3284 3.9884 20 4.65998 20 5.4884V16.4884C20 17.3168 19.3284 17.9884 18.5 17.9884H1.5C0.671573 17.9884 0 17.3168 0 16.4884V5.4884C0 4.65998 0.671573 3.9884 1.5 3.9884H5.48016ZM7.48016 3.9884H12.5198V3C12.5198 2.44772 12.0721 2 11.5198 2H8.48016C7.92788 2 7.48016 2.44772 7.48016 3V3.9884Z"></path> </svg>