<svg width="24" height="24" xmlns="http://www.w3.org/2000/svg" > <g clip-path="url(#prefix__clip0_7522_404470)" fill-rule="evenodd" clip-rule="evenodd" fill="#21201F" > <path d="M21.398 7.764c.465-.903.646-1.823.506-2.686a3.36 3.36 0 00-1.28-2.133c-1.185-.92-2.93-1.143-4.796-.653C14.606.798 13.061-.04 11.562.012c-.856.03-1.66.356-2.286.974-.62.613-1.014 1.46-1.169 2.46-.157 1.02.067 2.105.41 3.088.35.998.856 1.983 1.361 2.84a26.805 26.805 0 002.043 2.97l.002.001C10.693 15.95 9.716 19.71 10.333 24h2.307c-1.23-4.546-.469-8.087.456-11.284a26.774 26.774 0 003.384-1.196c.913-.397 1.902-.896 2.77-1.499.857-.593 1.676-1.34 2.148-2.257zm-8.277 2.862a25.12 25.12 0 002.562-.94c.845-.368 1.706-.808 2.428-1.309.736-.51 1.252-1.03 1.509-1.528.31-.604.368-1.091.31-1.448a1.361 1.361 0 00-.533-.876c-1.246-.968-2.986-.35-4.314.122l-.022.008-.01-.014c-.797-1.163-1.84-2.685-3.42-2.63-.379.013-.698.15-.949.398-.257.254-.496.678-.598 1.342-.085.554.026 1.278.322 2.123.29.83.727 1.692 1.195 2.485a25.11 25.11 0 001.52 2.267z"></path> <path d="M15.036 21.037c.792 1.26 2.136 2.034 3.505 1.828 1.267-.191 2.2-1.155 2.586-2.597 1.412-.486 2.308-1.484 2.41-2.761.111-1.38-.755-2.668-2.068-3.37-1.022-.546-2.239-.755-3.38-.806-1.155-.051-2.314.056-3.275.203l-.78.12-.065.786c-.08.969-.106 2.133.026 3.28.13 1.136.424 2.336 1.04 3.317zm4.243-1.708c-.17 1.217-.717 1.51-1.036 1.558-.402.06-1.038-.158-1.514-.914-.392-.625-.633-1.49-.747-2.48a13.944 13.944 0 01-.068-2.086c.67-.072 1.387-.109 2.085-.078.996.044 1.877.225 2.527.572.788.422 1.05 1.041 1.018 1.446-.026.322-.28.888-1.483 1.143l-.684.146-.098.693zM4.334 8.635c-1.475-.204-2.932.329-3.654 1.51-.668 1.093-.53 2.428.328 3.65-.536 1.394-.347 2.722.565 3.621.986.972 2.529 1.136 3.91.582 1.076-.432 2.018-1.23 2.792-2.072.781-.851 1.444-1.808 1.948-2.638l.41-.675-.56-.555c-.691-.684-1.566-1.452-2.53-2.089-.954-.63-2.061-1.176-3.21-1.334zm-1.42 4.348c-.822-.913-.695-1.52-.527-1.795.211-.347.788-.694 1.673-.572.73.1 1.549.472 2.38 1.022.584.385 1.142.836 1.642 1.289-.376.56-.808 1.132-1.28 1.647-.675.734-1.379 1.293-2.063 1.568-.83.332-1.473.135-1.762-.15-.23-.227-.5-.785.077-1.87l.329-.619-.469-.52z"></path> </g> <defs> <clipPath id="prefix__clip0_7522_404470"> <path fill="#fff" d="M0 0h24v24H0z" ></path> </clipPath> </defs> </svg>