<svg xmlns="http://www.w3.org/2000/svg" viewBox="0 0 24 24" > <path fill-rule="evenodd" d="M12 1C5.925 1 1 5.925 1 12s4.925 11 11 11 11-4.925 11-11S18.075 1 12 1m0 1.75c5.1 0 9.25 4.15 9.25 9.25S17.1 21.25 12 21.25 2.75 17.1 2.75 12 6.9 2.75 12 2.75zm-1.5 13.293c0 .718.479 1.162 1.244 1.162.766 0 1.237-.444 1.237-1.162 0-.725-.471-1.169-1.237-1.169-.765 0-1.244.444-1.244 1.169zm1.456-8.996c-2.099 0-3.288 1.176-3.322 2.878h1.852c.041-.752.561-1.237 1.347-1.237.779 0 1.299.451 1.299 1.086 0 .636-.267.964-1.149 1.491-.943.553-1.319 1.169-1.23 2.262l.014.376h1.811v-.362c0-.656.253-.991 1.162-1.518.964-.567 1.463-1.285 1.463-2.31 0-1.579-1.292-2.666-3.247-2.666z" ></path> </svg>