<svg xmlns="http://www.w3.org/2000/svg" fill-rule="evenodd" viewBox="0 0 24 24"><path d="M1.95 19.486a1.2 1.2 0 0 1-.753-1.114V5.628a1.2 1.2 0 0 1 1.645-1.114l9.564 3.828a1.2 1.2 0 0 1 .755 1.114V22.2a1.2 1.2 0 0 1-1.647 1.114L1.95 19.486Zm8.81.942v-10.16L3.598 7.4v10.16l7.164 2.868Z"></path><path d="m20.325 7.4-7.164 2.868v10.16l7.164-2.869V7.4Zm1.645 12.085-9.564 3.829A1.2 1.2 0 0 1 10.76 22.2V9.456a1.2 1.2 0 0 1 .754-1.114l9.564-3.828a1.2 1.2 0 0 1 1.646 1.114v12.744a1.2 1.2 0 0 1-.754 1.113Z"></path><path d="m5.626 5.628 6.334 2.536 6.335-2.536-6.336-2.536-6.332 2.536h-.001Zm6.78-4.942 9.564 3.828c1.005.402 1.005 1.826 0 2.228l-9.564 3.828a1.2 1.2 0 0 1-.892 0L1.95 6.742C.944 6.34.944 4.916 1.95 4.514L11.514.686a1.2 1.2 0 0 1 .892 0Z"></path></svg>