<svg width="20" height="20" viewBox="0 0 20 20" xmlns="http://www.w3.org/2000/svg" > <path d="M6.01639 9.08366V1H10.1721C12.0083 1 13.4345 1.41005 14.4508 2.23013C15.4836 3.05022 16 4.28871 16 5.94561C16 6.79914 15.8525 7.53565 15.5574 8.15479C15.2787 8.77409 14.8689 9.2845 14.3279 9.68618C13.8033 10.0712 13.1721 10.364 12.4344 10.5648C11.6967 10.749 10.8771 10.841 9.97542 10.841H8.32788V12.9749H13.4672V14.7322H8.32788V19H6.01639V14.7322H4V12.9749H6.01639V10.841H4V9.08366H6.01639ZM8.32788 3.03348V9.08366H9.97542C11.1722 9.08366 12.082 8.83262 12.7049 8.33053C13.3443 7.8118 13.6639 7.01677 13.6639 5.94561C13.6639 4.95817 13.3853 4.23014 12.8279 3.76151C12.2869 3.27616 11.4016 3.03348 10.1721 3.03348H8.32788Z" fill="black" ></path> </svg>