<svg xmlns="http://www.w3.org/2000/svg" width="24" height="24" fill="none"><path fill="#222" d="M22.128 13.822c-.186-.091-3.824-.924-8.393-1.803l-2.28 1.598c4.155 1.011 7.765 1.74 8.17 1.794.05.005.122.016.215.022 1.06.103 2.043-.59 2.288-1.61Z"></path><path fill="#222" d="M9.478 16.1a3.158 3.158 0 0 0-.397-.664.836.836 0 0 1 .226-1.242c.263-.158.587-.365.973-.629l3.873-2.72c3.543-2.517 6.251-4.572 6.376-4.72-.63-.83-1.798-1.053-2.728-.529-.083.044-.144.084-.188.11-.376.234-3.813 2.722-7.507 5.626a26.614 26.614 0 0 0-1.437-.227.826.826 0 0 1-.702-1.042 2.9 2.9 0 0 0 .098-.771c.005-1.708-1.413-3.08-3.148-3.058a3.177 3.177 0 0 0-2.223.942c-.42.418-.706.93-.844 1.482a2.79 2.79 0 0 0-.082.72c-.005 1.708 1.412 3.08 3.148 3.058a3.06 3.06 0 0 0 1.023-.185.844.844 0 0 1 .619.024c.273.12.726.303 1.67.541-.774.607-1.104.958-1.31 1.188a.854.854 0 0 1-.556.279 3.198 3.198 0 0 0-1.008.255c-1.595.7-2.338 2.536-1.657 4.1.1.22.225.431.362.623.347.448.812.796 1.362 1.005a3.178 3.178 0 0 0 2.406-.063c1.589-.703 2.336-2.545 1.65-4.103ZM6.18 10.572a1.82 1.82 0 0 1-1.277.54 1.779 1.779 0 0 1-1.28-.504 1.705 1.705 0 0 1-.529-1.248c-.002-.475.19-.923.533-1.267a1.82 1.82 0 0 1 1.278-.54c.999-.017 1.809.769 1.809 1.751a1.46 1.46 0 0 1-.054.414 1.697 1.697 0 0 1-.48.854Zm1.109 8.422a1.824 1.824 0 0 1-1.383.036 1.738 1.738 0 0 1-1.006-2.296c.182-.447.523-.8.968-.992a1.823 1.823 0 0 1 2.165.54c.087.107.156.23.214.355.392.897-.035 1.951-.958 2.357Z"></path></svg>