<svg viewBox="0 0 24 24" xmlns="http://www.w3.org/2000/svg" width="24" height="24" > <path d="m10 9h-2v3h2v-3z" fill="#21201F"></path> <path d="m16 9h-2v3h2v-3z" fill="#21201F"></path> <path d="m12 1c-2.2091 0-4 1.7909-4 4h-3.999l-0.31834 10.824c-0.05626 1.9129-0.08439 2.8694 0.20934 3.6253 0.39166 1.0078 1.1746 1.8142 2.1705 2.2353 0.74691 0.3158 1.7038 0.3158 3.6176 0.3158h4.6419c1.9138 0 2.8706 0 3.6176-0.3158 0.9958-0.4211 1.7788-1.2275 2.1705-2.2353 0.2937-0.7559 0.2656-1.7124 0.2093-3.6253l-0.3183-10.824h-4.001c0-2.2091-1.7909-4-4-4zm0 2c-1.1046 0-2 0.89543-2 2h4c0-1.1046-0.8954-2-2-2zm-6.057 4-0.26124 8.8824c-0.02895 0.9842-0.04657 1.621-0.02728 2.1087 0.0186 0.4703 0.06889 0.649 0.10167 0.7333 0.19583 0.504 0.58732 0.9071 1.0853 1.1177 0.08334 0.0352 0.26052 0.0908 0.73004 0.1232 0.48692 0.0336 1.1239 0.0347 2.1086 0.0347h4.6419c0.9847 0 1.6217-0.0011 2.1086-0.0347 0.4695-0.0324 0.6467-0.088 0.73-0.1232 0.498-0.2106 0.8895-0.6137 1.0853-1.1177 0.0328-0.0843 0.0831-0.263 0.1017-0.7333 0.0192-0.4877 0.0016-1.1245-0.0273-2.1087l-0.2613-8.8824h-12.116z" clip-rule="evenodd" fill="#21201F" fill-rule="evenodd" ></path> </svg>