<svg width="20" height="20" viewBox="0 0 20 20" xmlns="http://www.w3.org/2000/svg" > <path d="M17.2793 8.25077C18.7918 6.73819 18.7709 4.30656 17.232 2.76768C15.6931 1.2288 13.2615 1.20784 11.7489 2.72042L10 4.46933L15.5303 9.99967L17.2793 8.25077Z" stroke="black" stroke-width="2" ></path> <path d="M2.7209 11.7489C1.20833 13.2615 1.22929 15.6931 2.76817 17.232C4.30705 18.7709 6.73868 18.7918 8.25125 17.2793L10.0002 15.5303L4.46982 10L2.7209 11.7489Z" stroke="black" stroke-width="2" ></path> <path d="M8.25174 2.72042C6.73917 1.20784 4.30754 1.2288 2.76866 2.76768C1.22978 4.30656 1.20882 6.73819 2.72139 8.25077L4.47031 9.99967L10.0007 4.46932L8.25174 2.72042Z" stroke="black" stroke-width="2" ></path> <path d="M15.5303 10L10 15.5303L11.7489 17.2793C13.2615 18.7918 15.6931 18.7709 17.232 17.232C18.7709 15.6931 18.7918 13.2615 17.2793 11.7489L15.5303 10Z" stroke="black" stroke-width="2" ></path> </svg>