<svg xmlns="http://www.w3.org/2000/svg" viewBox="-2 -2 20 20"><path d="M4.584.626A4.534 4.534 0 0 0 .05 5.16c0 3.442 2.548 6.792 7.536 10.09l.414.273.414-.273c4.988-3.298 7.536-6.648 7.536-10.09A4.534 4.534 0 0 0 11.416.626C10.204.626 9.06 1.078 8 1.958 6.94 1.078 5.796.626 4.584.626zM1.55 5.16a3.034 3.034 0 0 1 3.034-3.034c.993 0 1.948.446 2.888 1.378L8 4.027l.528-.523c.94-.932 1.895-1.378 2.888-1.378A3.033 3.033 0 0 1 14.45 5.16c0 2.743-2.117 5.61-6.45 8.561C3.667 10.77 1.55 7.903 1.55 5.16z"></path></svg>