<svg xmlns="http://www.w3.org/2000/svg" width="16" height="16" > <path fill="currentColor" fill-rule="evenodd" d="M8.667 5.967h-4c-.488 0-.776 0-.989.018a1 1 0 0 0-.186.026.37.37 0 0 0-.147.147 1 1 0 0 0-.026.186c-.018.213-.019.501-.019.99v4c0 .487.001.775.019.988.009.116.021.17.026.187a.37.37 0 0 0 .147.146c.016.005.07.017.186.027.213.017.5.018.989.018h4c.488 0 .776-.001.989-.018.116-.01.17-.022.186-.027a.37.37 0 0 0 .147-.146c.004-.017.017-.07.026-.187.017-.213.018-.5.018-.989v-4c0-.488 0-.776-.018-.989a1 1 0 0 0-.026-.186.37.37 0 0 0-.147-.147 1 1 0 0 0-.186-.026c-.213-.017-.501-.018-.99-.018m-5.182 6.686.002.001zM2.182 5.577C2 5.933 2 6.4 2 7.333v4c0 .934 0 1.4.182 1.757.16.313.415.569.728.728.357.182.823.182 1.757.182h4c.933 0 1.4 0 1.756-.182.314-.16.569-.415.729-.728.182-.357.182-.823.182-1.757v-4c0-.933 0-1.4-.182-1.756a1.67 1.67 0 0 0-.729-.729c-.356-.181-.823-.181-1.756-.181h-4c-.934 0-1.4 0-1.757.181-.313.16-.568.415-.728.729" clip-rule="evenodd" ></path> <path fill="currentColor" fill-rule="evenodd" d="M11.394 3.342c-.3-.025-.69-.025-1.26-.025h-4.8a.65.65 0 1 1 0-1.3h4.826c.538 0 .98 0 1.34.029.374.03.716.096 1.037.26.498.253.904.659 1.158 1.158.163.32.229.662.259 1.036.03.36.03.803.03 1.34v4.827a.65.65 0 0 1-1.3 0v-4.8c0-.571-.001-.96-.026-1.261-.024-.293-.067-.445-.122-.552a1.35 1.35 0 0 0-.59-.59c-.107-.055-.259-.098-.552-.122" clip-rule="evenodd" ></path> </svg>