<svg xmlns="http://www.w3.org/2000/svg" width="23" height="12" fill="none" color="#8A8784"><path fill="currentColor" fill-rule="evenodd" d="M3.597.739A1.675 1.675 0 015.922.287l5.436 3.666A6.002 6.002 0 0123 6a6 6 0 01-11.228 2.946l-1.562 2.315a1.675 1.675 0 01-2.325.452L1.239 7.23a1.675 1.675 0 01-.452-2.325zm1.766.377l6.646 4.483c.31.208.391.628.183.937l-2.81 4.166a.675.675 0 01-.938.182L1.798 6.401a.675.675 0 01-.182-.937l2.81-4.166a.675.675 0 01.937-.182m7.05 6.879A5.001 5.001 0 0022 6a5 5 0 00-9.781-1.467l.35.237c.767.517.969 1.558.452 2.325zm2.087.475h5v1.052h-5zm1.487-1.75h1.972l.333 1.058h1.094L17.91 3.332c-.143-.427-.308-.77-.873-.77s-.738.337-.886.77l-1.544 4.444h1.025zm1-3.004h.025l.664 2.116h-1.388zM8.702 6a.3.3 0 00-.416.081L7.48 7.275a.3.3 0 00.081.416l1.493 1.007a.3.3 0 00.416-.081l.805-1.194a.3.3 0 00-.08-.416z" clip-rule="evenodd"/></svg>