<svg xmlns="http://www.w3.org/2000/svg" width="19" height="10"><path fill="#006933" d="M7.164 5a.25.25 0 00-.347.068l-.67.995a.25.25 0 00.067.347l1.243.839a.25.25 0 00.347-.068l.671-.995a.25.25 0 00-.067-.347z"/><path fill="#006933" d="M18.5 5a4.5 4.5 0 01-8.505 2.054l-.315.466a5 5 0 10-.366-4.268L4.85.238a1.396 1.396 0 00-1.94.378L.569 4.088a1.396 1.396 0 00.377 1.938l5.538 3.736c.64.43 1.507.262 1.938-.377l2.342-3.472a1.396 1.396 0 00-.377-1.938l-.645-.435A4.502 4.502 0 0118.5 5M4.57.654l5.538 3.736c.41.276.518.833.241 1.243L8.008 9.105a.896.896 0 01-1.244.242L1.225 5.611a.896.896 0 01-.242-1.243L3.325.896A.896.896 0 014.57.654"/><path fill="#006933" d="M15.75 8.005h-1.045V2.817h-.467c-.854 0-1.303.432-1.303 1.07 0 .726.31 1.062.95 1.494l.526.354-1.52 2.27h-1.13l1.364-2.028c-.786-.561-1.226-1.105-1.226-2.03 0-1.156.803-1.942 2.33-1.942h1.52z"/></svg>