<svg width="20" height="20" viewBox="0 0 20 20" fill="none" xmlns="http://www.w3.org/2000/svg"><mask id="path-1-inside-1_14332_29064" fill="white"><path fill-rule="evenodd" clip-rule="evenodd" d="M12.22 16.6631C12.2655 16.5507 12.3574 16.463 12.4721 16.4238C15.4827 15.3961 17.6477 12.5431 17.6477 9.18457C17.6477 4.96088 14.2237 1.53691 10 1.53691C5.77631 1.53691 2.35234 4.96088 2.35234 9.18457C2.35234 12.5459 4.52087 15.4007 7.53524 16.4264C7.65025 16.4655 7.74238 16.5533 7.78786 16.666C8.15312 17.5706 8.82417 18.5768 10.0022 18.5768C11.1815 18.5768 11.8539 17.5685 12.22 16.6631Z"></path></mask><path d="M17.6477 9.18457L16.1477 9.18457L16.1477 9.18457H17.6477ZM10 1.53691L10 3.03691L10 1.53691ZM2.35234 9.18457L3.85234 9.18457L2.35234 9.18457ZM10.0022 18.5768L10.0022 17.0768L10.0022 17.0768L10.0022 18.5768ZM7.53524 16.4264L7.05206 17.8464L7.53524 16.4264ZM7.78786 16.666L9.17876 16.1044L7.78786 16.666ZM12.4721 16.4238L12.9568 17.8434L12.4721 16.4238ZM12.22 16.6631L10.8294 16.1008L12.22 16.6631ZM16.1477 9.18457C16.1477 11.8821 14.4094 14.1775 11.9875 15.0043L12.9568 17.8434C16.556 16.6146 19.1477 13.2042 19.1477 9.18457L16.1477 9.18457ZM10 3.03691C13.3953 3.03691 16.1477 5.78931 16.1477 9.18457L19.1477 9.18457C19.1477 4.13246 15.0521 0.0369079 10 0.0369076L10 3.03691ZM3.85234 9.18457C3.85234 5.78931 6.60474 3.03691 10 3.03691L10 0.0369076C4.94788 0.036907 0.852336 4.13246 0.852336 9.18457L3.85234 9.18457ZM8.01841 15.0063C5.59347 14.1812 3.85234 11.8843 3.85234 9.18457L0.852336 9.18457C0.852336 13.2075 3.44827 16.6202 7.05206 17.8464L8.01841 15.0063ZM10.0022 17.0768C9.89274 17.0768 9.79638 17.047 9.65666 16.9058C9.48996 16.7372 9.32263 16.4607 9.17876 16.1044L6.39696 17.2276C6.78813 18.1964 7.809 20.0768 10.0022 20.0768L10.0022 17.0768ZM10.8294 16.1008C10.6851 16.4576 10.5172 16.7352 10.3496 16.9046C10.2089 17.0468 10.1118 17.0768 10.0022 17.0768L10.0022 20.0768C12.1967 20.0767 13.219 18.194 13.6106 17.2254L10.8294 16.1008ZM7.05206 17.8464C6.74944 17.7434 6.51298 17.5149 6.39696 17.2276L9.17876 16.1044C8.97177 15.5918 8.55107 15.1875 8.01841 15.0063L7.05206 17.8464ZM11.9875 15.0043C11.4561 15.1857 11.0363 15.5892 10.8294 16.1008L13.6106 17.2254C13.4947 17.5122 13.2587 17.7403 12.9568 17.8434L11.9875 15.0043Z" fill="currentColor" mask="url(#path-1-inside-1_14332_29064)"></path><circle cx="9.99999" cy="9.18456" r="1.56249" stroke="currentColor" stroke-width="1.5"></circle></svg>