<svg width="50" height="16" viewBox="0 0 50 16" xmlns="http://www.w3.org/2000/svg"><g><path d="m8.288 13h1.936v-11.12h-2.816c-2.832 0-4.32 1.456-4.32 3.6 0 1.712 0.816 2.72 2.272 3.76l-2.528 3.76h2.096l2.816-4.208-0.976-0.656c-1.184-0.8-1.76-1.424-1.76-2.768 0-1.184 0.832-1.984 2.416-1.984h0.864v9.616zm37.328 0.16c0.88 0 1.504-0.16 1.968-0.496v-1.552c-0.48 0.336-1.056 0.544-1.856 0.544-1.36 0-1.92-1.056-1.92-2.72 0-1.744 0.688-2.64 1.936-2.64 0.736 0 1.456 0.256 1.84 0.496v-1.616c-0.4-0.224-1.104-0.384-2.048-0.384-2.432 0-3.696 1.744-3.696 4.192 0 2.688 1.232 4.176 3.776 4.176zm-11.904-0.704v-1.552c-0.592 0.4-1.584 0.752-2.512 0.752-1.392 0-1.92-0.656-2-2h4.592v-1.008c0-2.8-1.232-3.856-3.136-3.856-2.32 0-3.424 1.776-3.424 4.208 0 2.8 1.376 4.16 3.808 4.16 1.216 0 2.112-0.32 2.672-0.704zm-17.44-7.504v3.184h-2.544v-3.184h-1.904v8.048h1.904v-3.36h2.544v3.36h1.904v-8.048h-1.904zm10.496 6.544h-0.848v-6.544h-5.552v0.688c0 1.968-0.128 4.512-0.8 5.856h-0.592v3.344h1.76v-1.84h4.272v1.84h1.76v-3.344zm13.024 1.504h2.16l-3.056-4.336 2.688-3.712h-1.92l-2.688 3.712v-3.712h-1.904v8.048h1.904v-3.952l2.816 3.952zm-9.168-6.704c0.944 0 1.232 0.784 1.232 1.792v0.16h-2.656c0.048-1.28 0.512-1.952 1.424-1.952zm-6.608 5.2h-2.688c0.528-1.216 0.672-3.408 0.672-4.8v-0.24h2.016v5.04z" fill="currentColor"></path></g></svg>
