<svg xmlns="http://www.w3.org/2000/svg" viewBox="0 0 610 610"><g id="barcode" fill="#000000"><rect x="0" y="0" width="610" height="610" fill="#FFFFFF"/><rect x="0.0" y="0.0" width="70.0" height="10.0"/><rect x="110.0" y="0.0" width="20.0" height="10.0"/><rect x="140.0" y="0.0" width="20.0" height="10.0"/><rect x="170.0" y="0.0" width="10.0" height="10.0"/><rect x="190.0" y="0.0" width="20.0" height="10.0"/><rect x="220.0" y="0.0" width="20.0" height="10.0"/><rect x="250.0" y="0.0" width="10.0" height="10.0"/><rect x="270.0" y="0.0" width="10.0" height="10.0"/><rect x="290.0" y="0.0" width="10.0" height="20.0"/><rect x="370.0" y="0.0" width="10.0" height="10.0"/><rect x="390.0" y="0.0" width="10.0" height="10.0"/><rect x="410.0" y="0.0" width="20.0" height="10.0"/><rect x="450.0" y="0.0" width="10.0" height="10.0"/><rect x="510.0" y="0.0" width="20.0" height="20.0"/><rect x="540.0" y="0.0" width="70.0" height="10.0"/><rect x="0.0" y="10.0" width="10.0" height="50.0"/><rect x="60.0" y="10.0" width="10.0" height="50.0"/><rect x="100.0" y="10.0" width="10.0" height="10.0"/><rect x="140.0" y="10.0" width="10.0" height="20.0"/><rect x="180.0" y="10.0" width="70.0" height="10.0"/><rect x="310.0" y="10.0" width="40.0" height="10.0"/><rect x="360.0" y="10.0" width="30.0" height="10.0"/><rect x="420.0" y="10.0" width="30.0" height="10.0"/><rect x="460.0" y="10.0" width="10.0" height="10.0"/><rect x="540.0" y="10.0" width="10.0" height="50.0"/><rect x="600.0" y="10.0" width="10.0" height="50.0"/><rect x="20.0" y="20.0" width="30.0" height="30.0"/><rect x="80.0" y="20.0" width="10.0" height="10.0"/><rect x="100.0" y="20.0" width="30.0" height="10.0"/><rect x="170.0" y="20.0" width="30.0" height="10.0"/><rect x="210.0" y="20.0" width="10.0" height="10.0"/><rect x="250.0" y="20.0" width="10.0" height="10.0"/><rect x="270.0" y="20.0" width="10.0" height="10.0"/><rect x="290.0" y="20.0" width="20.0" height="10.0"/><rect x="320.0" y="20.0" width="10.0" height="10.0"/><rect x="390.0" y="20.0" width="40.0" height="10.0"/><rect x="440.0" y="20.0" width="50.0" height="10.0"/><rect x="500.0" y="20.0" width="30.0" height="10.0"/><rect x="560.0" y="20.0" width="30.0" height="30.0"/><rect x="80.0" y="30.0" width="20.0" height="10.0"/><rect x="110.0" y="30.0" width="30.0" height="10.0"/><rect x="150.0" y="30.0" width="20.0" height="10.0"/><rect x="180.0" y="30.0" width="20.0" height="10.0"/><rect x="240.0" y="30.0" width="20.0" height="10.0"/><rect x="280.0" y="30.0" width="10.0" height="10.0"/><rect x="310.0" y="30.0" width="20.0" height="10.0"/><rect x="350.0" y="30.0" width="40.0" height="10.0"/><rect x="410.0" y="30.0" width="30.0" height="10.0"/><rect x="470.0" y="30.0" width="40.0" height="10.0"/><rect x="520.0" y="30.0" width="10.0" height="10.0"/><rect x="80.0" y="40.0" width="30.0" height="10.0"/><rect x="120.0" y="40.0" width="30.0" height="10.0"/><rect x="160.0" y="40.0" width="10.0" height="10.0"/><rect x="190.0" y="40.0" width="10.0" height="10.0"/><rect x="220.0" y="40.0" width="30.0" height="10.0"/><rect x="260.0" y="40.0" width="10.0" height="10.0"/><rect x="280.0" y="40.0" width="60.0" height="10.0"/><rect x="350.0" y="40.0" width="10.0" height="10.0"/><rect x="390.0" y="40.0" width="50.0" height="10.0"/><rect x="450.0" y="40.0" width="10.0" height="10.0"/><rect x="470.0" y="40.0" width="20.0" height="10.0"/><rect x="500.0" y="40.0" width="20.0" height="10.0"/><rect x="80.0" y="50.0" width="20.0" height="10.0"/><rect x="130.0" y="50.0" width="10.0" height="10.0"/><rect x="160.0" y="50.0" width="50.0" height="10.0"/><rect x="240.0" y="50.0" width="10.0" height="20.0"/><rect x="270.0" y="50.0" width="20.0" height="10.0"/><rect x="320.0" y="50.0" width="10.0" height="20.0"/><rect x="340.0" y="50.0" width="10.0" height="20.0"/><rect x="360.0" y="50.0" width="40.0" height="10.0"/><rect x="410.0" y="50.0" width="10.0" height="10.0"/><rect x="440.0" y="50.0" width="10.0" height="20.0"/><rect x="460.0" y="50.0" width="30.0" height="10.0"/><rect x="500.0" y="50.0" width="10.0" height="20.0"/><rect x="0.0" y="60.0" width="70.0" height="10.0"/><rect x="80.0" y="60.0" width="10.0" height="20.0"/><rect x="100.0" y="60.0" width="10.0" height="10.0"/><rect x="120.0" y="60.0" width="10.0" height="10.0"/><rect x="140.0" y="60.0" width="10.0" height="10.0"/><rect x="160.0" y="60.0" width="10.0" height="10.0"/><rect x="180.0" y="60.0" width="10.0" height="10.0"/><rect x="200.0" y="60.0" width="10.0" height="10.0"/><rect x="220.0" y="60.0" width="10.0" height="10.0"/><rect x="260.0" y="60.0" width="10.0" height="10.0"/><rect x="280.0" y="60.0" width="10.0" height="10.0"/><rect x="300.0" y="60.0" width="10.0" height="10.0"/><rect x="360.0" y="60.0" width="10.0" height="10.0"/><rect x="380.0" y="60.0" width="10.0" height="10.0"/><rect x="400.0" y="60.0" width="10.0" height="10.0"/><rect x="420.0" y="60.0" width="10.0" height="20.0"/><rect x="460.0" y="60.0" width="10.0" height="10.0"/><rect x="480.0" y="60.0" width="10.0" height="10.0"/><rect x="520.0" y="60.0" width="10.0" height="10.0"/><rect x="540.0" y="60.0" width="70.0" height="10.0"/><rect x="120.0" y="70.0" width="30.0" height="10.0"/><rect x="170.0" y="70.0" width="40.0" height="10.0"/><rect x="220.0" y="70.0" width="30.0" height="10.0"/><rect x="260.0" y="70.0" width="30.0" height="10.0"/><rect x="320.0" y="70.0" width="30.0" height="10.0"/><rect x="370.0" y="70.0" width="20.0" height="10.0"/><rect x="440.0" y="70.0" width="30.0" height="10.0"/><rect x="510.0" y="70.0" width="10.0" height="10.0"/><rect x="0.0" y="80.0" width="10.0" height="10.0"/><rect x="20.0" y="80.0" width="50.0" height="10.0"/><rect x="110.0" y="80.0" width="30.0" height="10.0"/><rect x="150.0" y="80.0" width="20.0" height="10.0"/><rect x="200.0" y="80.0" width="60.0" height="10.0"/><rect x="280.0" y="80.0" width="50.0" height="10.0"/><rect x="350.0" y="80.0" width="30.0" height="10.0"/><rect x="410.0" y="80.0" width="30.0" height="10.0"/><rect x="450.0" y="80.0" width="50.0" height="10.0"/><rect x="520.0" y="80.0" width="10.0" height="10.0"/><rect x="540.0" y="80.0" width="50.0" height="10.0"/><rect x="20.0" y="90.0" width="20.0" height="10.0"/><rect x="100.0" y="90.0" width="20.0" height="10.0"/><rect x="140.0" y="90.0" width="10.0" height="10.0"/><rect x="170.0" y="90.0" width="30.0" height="10.0"/><rect x="240.0" y="90.0" width="10.0" height="10.0"/><rect x="260.0" y="90.0" width="60.0" height="10.0"/><rect x="330.0" y="90.0" width="10.0" height="10.0"/><rect x="350.0" y="90.0" width="10.0" height="10.0"/><rect x="370.0" y="90.0" width="10.0" height="10.0"/><rect x="410.0" y="90.0" width="50.0" height="10.0"/><rect x="480.0" y="90.0" width="20.0" height="10.0"/><rect x="510.0" y="90.0" width="10.0" height="10.0"/><rect x="530.0" y="90.0" width="30.0" height="10.0"/><rect x="570.0" y="90.0" width="10.0" height="20.0"/><rect x="590.0" y="90.0" width="10.0" height="10.0"/><rect x="30.0" y="100.0" width="40.0" height="10.0"/><rect x="80.0" y="100.0" width="20.0" height="10.0"/><rect x="110.0" y="100.0" width="10.0" height="10.0"/><rect x="180.0" y="100.0" width="20.0" height="10.0"/><rect x="230.0" y="100.0" width="10.0" height="10.0"/><rect x="280.0" y="100.0" width="40.0" height="10.0"/><rect x="330.0" y="100.0" width="30.0" height="10.0"/><rect x="370.0" y="100.0" width="30.0" height="10.0"/><rect x="450.0" y="100.0" width="60.0" height="10.0"/><rect x="530.0" y="100.0" width="10.0" height="10.0"/><rect x="550.0" y="100.0" width="10.0" height="10.0"/><rect x="590.0" y="100.0" width="20.0" height="20.0"/><rect x="10.0" y="110.0" width="10.0" height="10.0"/><rect x="30.0" y="110.0" width="20.0" height="10.0"/><rect x="90.0" y="110.0" width="20.0" height="10.0"/><rect x="120.0" y="110.0" width="10.0" height="10.0"/><rect x="150.0" y="110.0" width="10.0" height="10.0"/><rect x="190.0" y="110.0" width="40.0" height="10.0"/><rect x="250.0" y="110.0" width="30.0" height="10.0"/><rect x="290.0" y="110.0" width="20.0" height="10.0"/><rect x="320.0" y="110.0" width="20.0" height="10.0"/><rect x="350.0" y="110.0" width="10.0" height="10.0"/><rect x="390.0" y="110.0" width="20.0" height="10.0"/><rect x="440.0" y="110.0" width="10.0" height="10.0"/><rect x="490.0" y="110.0" width="10.0" height="10.0"/><rect x="530.0" y="110.0" width="50.0" height="10.0"/><rect x="30.0" y="120.0" width="10.0" height="20.0"/><rect x="50.0" y="120.0" width="30.0" height="10.0"/><rect x="100.0" y="120.0" width="20.0" height="10.0"/><rect x="130.0" y="120.0" width="10.0" height="20.0"/><rect x="170.0" y="120.0" width="10.0" height="20.0"/><rect x="210.0" y="120.0" width="10.0" height="10.0"/><rect x="230.0" y="120.0" width="30.0" height="10.0"/><rect x="290.0" y="120.0" width="10.0" height="10.0"/><rect x="360.0" y="120.0" width="10.0" height="20.0"/><rect x="380.0" y="120.0" width="10.0" height="10.0"/><rect x="410.0" y="120.0" width="10.0" height="10.0"/><rect x="430.0" y="120.0" width="10.0" height="10.0"/><rect x="470.0" y="120.0" width="20.0" height="10.0"/><rect x="520.0" y="120.0" width="10.0" height="10.0"/><rect x="580.0" y="120.0" width="30.0" height="10.0"/><rect x="70.0" y="130.0" width="30.0" height="10.0"/><rect x="110.0" y="130.0" width="10.0" height="10.0"/><rect x="150.0" y="130.0" width="10.0" height="10.0"/><rect x="200.0" y="130.0" width="30.0" height="10.0"/><rect x="240.0" y="130.0" width="10.0" height="10.0"/><rect x="260.0" y="130.0" width="40.0" height="10.0"/><rect x="310.0" y="130.0" width="20.0" height="10.0"/><rect x="410.0" y="130.0" width="40.0" height="10.0"/><rect x="480.0" y="130.0" width="10.0" height="10.0"/><rect x="530.0" y="130.0" width="50.0" height="10.0"/><rect x="600.0" y="130.0" width="10.0" height="10.0"/><rect x="0.0" y="140.0" width="40.0" height="10.0"/><rect x="50.0" y="140.0" width="40.0" height="10.0"/><rect x="120.0" y="140.0" width="20.0" height="10.0"/><rect x="170.0" y="140.0" width="20.0" height="10.0"/><rect x="200.0" y="140.0" width="10.0" height="10.0"/><rect x="230.0" y="140.0" width="10.0" height="10.0"/><rect x="250.0" y="140.0" width="10.0" height="10.0"/><rect x="280.0" y="140.0" width="30.0" height="10.0"/><rect x="330.0" y="140.0" width="40.0" height="10.0"/><rect x="380.0" y="140.0" width="10.0" height="10.0"/><rect x="400.0" y="140.0" width="20.0" height="10.0"/><rect x="430.0" y="140.0" width="20.0" height="10.0"/><rect x="460.0" y="140.0" width="30.0" height="10.0"/><rect x="500.0" y="140.0" width="10.0" height="10.0"/><rect x="520.0" y="140.0" width="20.0" height="10.0"/><rect x="590.0" y="140.0" width="20.0" height="10.0"/><rect x="40.0" y="150.0" width="20.0" height="10.0"/><rect x="70.0" y="150.0" width="20.0" height="10.0"/><rect x="100.0" y="150.0" width="30.0" height="10.0"/><rect x="150.0" y="150.0" width="30.0" height="10.0"/><rect x="190.0" y="150.0" width="40.0" height="10.0"/><rect x="240.0" y="150.0" width="30.0" height="10.0"/><rect x="290.0" y="150.0" width="30.0" height="10.0"/><rect x="340.0" y="150.0" width="10.0" height="20.0"/><rect x="380.0" y="150.0" width="20.0" height="10.0"/><rect x="420.0" y="150.0" width="30.0" height="10.0"/><rect x="460.0" y="150.0" width="10.0" height="10.0"/><rect x="480.0" y="150.0" width="10.0" height="10.0"/><rect x="520.0" y="150.0" width="50.0" height="10.0"/><rect x="0.0" y="160.0" width="10.0" height="10.0"/><rect x="20.0" y="160.0" width="20.0" height="10.0"/><rect x="60.0" y="160.0" width="10.0" height="10.0"/><rect x="90.0" y="160.0" width="10.0" height="10.0"/><rect x="140.0" y="160.0" width="20.0" height="10.0"/><rect x="170.0" y="160.0" width="30.0" height="10.0"/><rect x="230.0" y="160.0" width="10.0" height="10.0"/><rect x="250.0" y="160.0" width="10.0" height="10.0"/><rect x="290.0" y="160.0" width="10.0" height="10.0"/><rect x="310.0" y="160.0" width="10.0" height="10.0"/><rect x="360.0" y="160.0" width="30.0" height="10.0"/><rect x="410.0" y="160.0" width="10.0" height="10.0"/><rect x="460.0" y="160.0" width="50.0" height="10.0"/><rect x="520.0" y="160.0" width="10.0" height="10.0"/><rect x="550.0" y="160.0" width="10.0" height="10.0"/><rect x="570.0" y="160.0" width="30.0" height="10.0"/><rect x="0.0" y="170.0" width="20.0" height="10.0"/><rect x="30.0" y="170.0" width="10.0" height="10.0"/><rect x="50.0" y="170.0" width="10.0" height="10.0"/><rect x="80.0" y="170.0" width="30.0" height="10.0"/><rect x="130.0" y="170.0" width="10.0" height="10.0"/><rect x="170.0" y="170.0" width="20.0" height="10.0"/><rect x="200.0" y="170.0" width="10.0" height="10.0"/><rect x="240.0" y="170.0" width="40.0" height="10.0"/><rect x="300.0" y="170.0" width="30.0" height="10.0"/><rect x="360.0" y="170.0" width="20.0" height="10.0"/><rect x="410.0" y="170.0" width="20.0" height="10.0"/><rect x="490.0" y="170.0" width="10.0" height="10.0"/><rect x="540.0" y="170.0" width="10.0" height="10.0"/><rect x="570.0" y="170.0" width="20.0" height="10.0"/><rect x="10.0" y="180.0" width="10.0" height="10.0"/><rect x="40.0" y="180.0" width="10.0" height="10.0"/><rect x="60.0" y="180.0" width="10.0" height="10.0"/><rect x="80.0" y="180.0" width="10.0" height="10.0"/><rect x="120.0" y="180.0" width="10.0" height="10.0"/><rect x="140.0" y="180.0" width="30.0" height="10.0"/><rect x="180.0" y="180.0" width="10.0" height="10.0"/><rect x="210.0" y="180.0" width="10.0" height="20.0"/><rect x="240.0" y="180.0" width="60.0" height="10.0"/><rect x="310.0" y="180.0" width="10.0" height="10.0"/><rect x="330.0" y="180.0" width="20.0" height="10.0"/><rect x="380.0" y="180.0" width="10.0" height="10.0"/><rect x="460.0" y="180.0" width="10.0" height="10.0"/><rect x="480.0" y="180.0" width="10.0" height="10.0"/><rect x="500.0" y="180.0" width="10.0" height="10.0"/><rect x="520.0" y="180.0" width="20.0" height="10.0"/><rect x="560.0" y="180.0" width="20.0" height="10.0"/><rect x="590.0" y="180.0" width="20.0" height="10.0"/><rect x="0.0" y="190.0" width="50.0" height="10.0"/><rect x="90.0" y="190.0" width="30.0" height="10.0"/><rect x="140.0" y="190.0" width="10.0" height="10.0"/><rect x="170.0" y="190.0" width="10.0" height="10.0"/><rect x="230.0" y="190.0" width="10.0" height="10.0"/><rect x="260.0" y="190.0" width="10.0" height="10.0"/><rect x="290.0" y="190.0" width="40.0" height="10.0"/><rect x="340.0" y="190.0" width="10.0" height="10.0"/><rect x="360.0" y="190.0" width="20.0" height="10.0"/><rect x="400.0" y="190.0" width="10.0" height="10.0"/><rect x="420.0" y="190.0" width="10.0" height="10.0"/><rect x="440.0" y="190.0" width="20.0" height="10.0"/><rect x="510.0" y="190.0" width="10.0" height="10.0"/><rect x="530.0" y="190.0" width="20.0" height="10.0"/><rect x="0.0" y="200.0" width="10.0" height="20.0"/><rect x="60.0" y="200.0" width="10.0" height="10.0"/><rect x="90.0" y="200.0" width="10.0" height="10.0"/><rect x="110.0" y="200.0" width="20.0" height="10.0"/><rect x="140.0" y="200.0" width="20.0" height="10.0"/><rect x="170.0" y="200.0" width="20.0" height="10.0"/><rect x="200.0" y="200.0" width="30.0" height="10.0"/><rect x="240.0" y="200.0" width="40.0" height="10.0"/><rect x="290.0" y="200.0" width="10.0" height="10.0"/><rect x="310.0" y="200.0" width="60.0" height="10.0"/><rect x="430.0" y="200.0" width="10.0" height="10.0"/><rect x="470.0" y="200.0" width="20.0" height="10.0"/><rect x="500.0" y="200.0" width="10.0" height="10.0"/><rect x="520.0" y="200.0" width="10.0" height="10.0"/><rect x="540.0" y="200.0" width="20.0" height="10.0"/><rect x="580.0" y="200.0" width="20.0" height="10.0"/><rect x="20.0" y="210.0" width="10.0" height="10.0"/><rect x="100.0" y="210.0" width="20.0" height="10.0"/><rect x="140.0" y="210.0" width="10.0" height="10.0"/><rect x="160.0" y="210.0" width="10.0" height="10.0"/><rect x="200.0" y="210.0" width="50.0" height="10.0"/><rect x="270.0" y="210.0" width="10.0" height="10.0"/><rect x="300.0" y="210.0" width="20.0" height="10.0"/><rect x="330.0" y="210.0" width="10.0" height="10.0"/><rect x="370.0" y="210.0" width="10.0" height="10.0"/><rect x="400.0" y="210.0" width="30.0" height="10.0"/><rect x="470.0" y="210.0" width="30.0" height="10.0"/><rect x="530.0" y="210.0" width="20.0" height="10.0"/><rect x="560.0" y="210.0" width="10.0" height="10.0"/><rect x="580.0" y="210.0" width="10.0" height="10.0"/><rect x="600.0" y="210.0" width="10.0" height="10.0"/><rect x="20.0" y="220.0" width="30.0" height="10.0"/><rect x="60.0" y="220.0" width="40.0" height="10.0"/><rect x="140.0" y="220.0" width="20.0" height="10.0"/><rect x="180.0" y="220.0" width="30.0" height="10.0"/><rect x="220.0" y="220.0" width="30.0" height="10.0"/><rect x="260.0" y="220.0" width="20.0" height="10.0"/><rect x="290.0" y="220.0" width="30.0" height="10.0"/><rect x="340.0" y="220.0" width="20.0" height="10.0"/><rect x="390.0" y="220.0" width="10.0" height="10.0"/><rect x="440.0" y="220.0" width="30.0" height="20.0"/><rect x="480.0" y="220.0" width="10.0" height="10.0"/><rect x="510.0" y="220.0" width="20.0" height="10.0"/><rect x="590.0" y="220.0" width="20.0" height="10.0"/><rect x="0.0" y="230.0" width="10.0" height="10.0"/><rect x="20.0" y="230.0" width="20.0" height="10.0"/><rect x="70.0" y="230.0" width="10.0" height="10.0"/><rect x="130.0" y="230.0" width="20.0" height="10.0"/><rect x="180.0" y="230.0" width="20.0" height="10.0"/><rect x="210.0" y="230.0" width="10.0" height="10.0"/><rect x="250.0" y="230.0" width="10.0" height="10.0"/><rect x="280.0" y="230.0" width="10.0" height="10.0"/><rect x="300.0" y="230.0" width="10.0" height="10.0"/><rect x="320.0" y="230.0" width="20.0" height="10.0"/><rect x="370.0" y="230.0" width="10.0" height="10.0"/><rect x="400.0" y="230.0" width="10.0" height="10.0"/><rect x="490.0" y="230.0" width="10.0" height="10.0"/><rect x="520.0" y="230.0" width="10.0" height="20.0"/><rect x="560.0" y="230.0" width="10.0" height="10.0"/><rect x="600.0" y="230.0" width="10.0" height="20.0"/><rect x="0.0" y="240.0" width="40.0" height="10.0"/><rect x="50.0" y="240.0" width="30.0" height="10.0"/><rect x="100.0" y="240.0" width="40.0" height="10.0"/><rect x="160.0" y="240.0" width="10.0" height="10.0"/><rect x="190.0" y="240.0" width="10.0" height="20.0"/><rect x="220.0" y="240.0" width="10.0" height="10.0"/><rect x="240.0" y="240.0" width="20.0" height="10.0"/><rect x="270.0" y="240.0" width="40.0" height="10.0"/><rect x="320.0" y="240.0" width="10.0" height="10.0"/><rect x="340.0" y="240.0" width="50.0" height="10.0"/><rect x="430.0" y="240.0" width="10.0" height="10.0"/><rect x="470.0" y="240.0" width="30.0" height="10.0"/><rect x="570.0" y="240.0" width="20.0" height="10.0"/><rect x="0.0" y="250.0" width="10.0" height="10.0"/><rect x="80.0" y="250.0" width="10.0" height="10.0"/><rect x="100.0" y="250.0" width="30.0" height="10.0"/><rect x="140.0" y="250.0" width="10.0" height="10.0"/><rect x="210.0" y="250.0" width="30.0" height="10.0"/><rect x="260.0" y="250.0" width="10.0" height="10.0"/><rect x="280.0" y="250.0" width="10.0" height="10.0"/><rect x="300.0" y="250.0" width="20.0" height="10.0"/><rect x="350.0" y="250.0" width="30.0" height="10.0"/><rect x="420.0" y="250.0" width="10.0" height="10.0"/><rect x="440.0" y="250.0" width="10.0" height="10.0"/><rect x="470.0" y="250.0" width="10.0" height="10.0"/><rect x="490.0" y="250.0" width="10.0" height="10.0"/><rect x="510.0" y="250.0" width="10.0" height="10.0"/><rect x="540.0" y="250.0" width="10.0" height="10.0"/><rect x="560.0" y="250.0" width="20.0" height="10.0"/><rect x="590.0" y="250.0" width="20.0" height="10.0"/><rect x="20.0" y="260.0" width="10.0" height="10.0"/><rect x="40.0" y="260.0" width="60.0" height="10.0"/><rect x="130.0" y="260.0" width="40.0" height="10.0"/><rect x="190.0" y="260.0" width="20.0" height="10.0"/><rect x="260.0" y="260.0" width="20.0" height="10.0"/><rect x="290.0" y="260.0" width="10.0" height="10.0"/><rect x="330.0" y="260.0" width="10.0" height="10.0"/><rect x="380.0" y="260.0" width="20.0" height="10.0"/><rect x="410.0" y="260.0" width="10.0" height="10.0"/><rect x="430.0" y="260.0" width="10.0" height="10.0"/><rect x="460.0" y="260.0" width="10.0" height="10.0"/><rect x="480.0" y="260.0" width="20.0" height="10.0"/><rect x="520.0" y="260.0" width="10.0" height="10.0"/><rect x="570.0" y="260.0" width="40.0" height="10.0"/><rect x="10.0" y="270.0" width="20.0" height="10.0"/><rect x="40.0" y="270.0" width="20.0" height="10.0"/><rect x="80.0" y="270.0" width="10.0" height="10.0"/><rect x="120.0" y="270.0" width="10.0" height="10.0"/><rect x="140.0" y="270.0" width="40.0" height="10.0"/><rect x="220.0" y="270.0" width="20.0" height="10.0"/><rect x="250.0" y="270.0" width="20.0" height="10.0"/><rect x="290.0" y="270.0" width="30.0" height="10.0"/><rect x="350.0" y="270.0" width="20.0" height="10.0"/><rect x="410.0" y="270.0" width="40.0" height="10.0"/><rect x="460.0" y="270.0" width="20.0" height="10.0"/><rect x="490.0" y="270.0" width="10.0" height="10.0"/><rect x="510.0" y="270.0" width="10.0" height="10.0"/><rect x="530.0" y="270.0" width="20.0" height="10.0"/><rect x="560.0" y="270.0" width="10.0" height="10.0"/><rect x="0.0" y="280.0" width="20.0" height="10.0"/><rect x="40.0" y="280.0" width="60.0" height="10.0"/><rect x="120.0" y="280.0" width="20.0" height="10.0"/><rect x="150.0" y="280.0" width="20.0" height="10.0"/><rect x="180.0" y="280.0" width="20.0" height="10.0"/><rect x="210.0" y="280.0" width="30.0" height="10.0"/><rect x="250.0" y="280.0" width="10.0" height="10.0"/><rect x="280.0" y="280.0" width="90.0" height="10.0"/><rect x="420.0" y="280.0" width="20.0" height="10.0"/><rect x="450.0" y="280.0" width="50.0" height="10.0"/><rect x="510.0" y="280.0" width="60.0" height="10.0"/><rect x="580.0" y="280.0" width="10.0" height="10.0"/><rect x="600.0" y="280.0" width="10.0" height="10.0"/><rect x="0.0" y="290.0" width="50.0" height="10.0"/><rect x="80.0" y="290.0" width="10.0" height="30.0"/><rect x="100.0" y="290.0" width="10.0" height="40.0"/><rect x="120.0" y="290.0" width="10.0" height="20.0"/><rect x="220.0" y="290.0" width="30.0" height="10.0"/><rect x="260.0" y="290.0" width="30.0" height="20.0"/><rect x="320.0" y="290.0" width="10.0" height="10.0"/><rect x="370.0" y="290.0" width="10.0" height="10.0"/><rect x="410.0" y="290.0" width="30.0" height="10.0"/><rect x="470.0" y="290.0" width="10.0" height="10.0"/><rect x="490.0" y="290.0" width="10.0" height="10.0"/><rect x="520.0" y="290.0" width="10.0" height="10.0"/><rect x="560.0" y="290.0" width="20.0" height="10.0"/><rect x="20.0" y="300.0" width="10.0" height="10.0"/><rect x="40.0" y="300.0" width="10.0" height="20.0"/><rect x="60.0" y="300.0" width="10.0" height="10.0"/><rect x="150.0" y="300.0" width="20.0" height="10.0"/><rect x="210.0" y="300.0" width="30.0" height="10.0"/><rect x="300.0" y="300.0" width="10.0" height="10.0"/><rect x="320.0" y="300.0" width="30.0" height="10.0"/><rect x="380.0" y="300.0" width="10.0" height="10.0"/><rect x="400.0" y="300.0" width="10.0" height="10.0"/><rect x="430.0" y="300.0" width="10.0" height="10.0"/><rect x="460.0" y="300.0" width="20.0" height="10.0"/><rect x="490.0" y="300.0" width="40.0" height="20.0"/><rect x="540.0" y="300.0" width="10.0" height="10.0"/><rect x="560.0" y="300.0" width="50.0" height="10.0"/><rect x="0.0" y="310.0" width="30.0" height="10.0"/><rect x="120.0" y="310.0" width="20.0" height="10.0"/><rect x="160.0" y="310.0" width="40.0" height="10.0"/><rect x="240.0" y="310.0" width="10.0" height="10.0"/><rect x="260.0" y="310.0" width="10.0" height="10.0"/><rect x="280.0" y="310.0" width="10.0" height="10.0"/><rect x="320.0" y="310.0" width="10.0" height="10.0"/><rect x="350.0" y="310.0" width="10.0" height="10.0"/><rect x="370.0" y="310.0" width="10.0" height="10.0"/><rect x="400.0" y="310.0" width="60.0" height="10.0"/><rect x="560.0" y="310.0" width="10.0" height="10.0"/><rect x="590.0" y="310.0" width="20.0" height="10.0"/><rect x="10.0" y="320.0" width="10.0" height="10.0"/><rect x="30.0" y="320.0" width="60.0" height="10.0"/><rect x="130.0" y="320.0" width="50.0" height="10.0"/><rect x="190.0" y="320.0" width="10.0" height="20.0"/><rect x="220.0" y="320.0" width="20.0" height="10.0"/><rect x="250.0" y="320.0" width="10.0" height="10.0"/><rect x="280.0" y="320.0" width="60.0" height="10.0"/><rect x="360.0" y="320.0" width="10.0" height="10.0"/><rect x="380.0" y="320.0" width="20.0" height="10.0"/><rect x="420.0" y="320.0" width="10.0" height="10.0"/><rect x="450.0" y="320.0" width="50.0" height="10.0"/><rect x="520.0" y="320.0" width="50.0" height="10.0"/><rect x="600.0" y="320.0" width="10.0" height="10.0"/><rect x="10.0" y="330.0" width="50.0" height="10.0"/><rect x="90.0" y="330.0" width="40.0" height="10.0"/><rect x="150.0" y="330.0" width="30.0" height="10.0"/><rect x="240.0" y="330.0" width="10.0" height="10.0"/><rect x="270.0" y="330.0" width="20.0" height="10.0"/><rect x="370.0" y="330.0" width="10.0" height="10.0"/><rect x="390.0" y="330.0" width="10.0" height="10.0"/><rect x="410.0" y="330.0" width="50.0" height="10.0"/><rect x="470.0" y="330.0" width="30.0" height="10.0"/><rect x="510.0" y="330.0" width="20.0" height="10.0"/><rect x="540.0" y="330.0" width="20.0" height="10.0"/><rect x="570.0" y="330.0" width="10.0" height="10.0"/><rect x="20.0" y="340.0" width="20.0" height="10.0"/><rect x="60.0" y="340.0" width="10.0" height="10.0"/><rect x="90.0" y="340.0" width="20.0" height="10.0"/><rect x="120.0" y="340.0" width="10.0" height="10.0"/><rect x="150.0" y="340.0" width="10.0" height="10.0"/><rect x="170.0" y="340.0" width="20.0" height="20.0"/><rect x="200.0" y="340.0" width="50.0" height="10.0"/><rect x="260.0" y="340.0" width="20.0" height="10.0"/><rect x="300.0" y="340.0" width="10.0" height="10.0"/><rect x="320.0" y="340.0" width="30.0" height="10.0"/><rect x="360.0" y="340.0" width="10.0" height="10.0"/><rect x="380.0" y="340.0" width="10.0" height="10.0"/><rect x="430.0" y="340.0" width="40.0" height="10.0"/><rect x="480.0" y="340.0" width="10.0" height="10.0"/><rect x="510.0" y="340.0" width="60.0" height="10.0"/><rect x="590.0" y="340.0" width="20.0" height="20.0"/><rect x="20.0" y="350.0" width="40.0" height="10.0"/><rect x="70.0" y="350.0" width="30.0" height="10.0"/><rect x="140.0" y="350.0" width="10.0" height="10.0"/><rect x="200.0" y="350.0" width="20.0" height="10.0"/><rect x="250.0" y="350.0" width="10.0" height="20.0"/><rect x="280.0" y="350.0" width="10.0" height="10.0"/><rect x="300.0" y="350.0" width="20.0" height="10.0"/><rect x="340.0" y="350.0" width="20.0" height="10.0"/><rect x="370.0" y="350.0" width="10.0" height="10.0"/><rect x="410.0" y="350.0" width="50.0" height="10.0"/><rect x="470.0" y="350.0" width="60.0" height="10.0"/><rect x="540.0" y="350.0" width="10.0" height="10.0"/><rect x="560.0" y="350.0" width="20.0" height="10.0"/><rect x="10.0" y="360.0" width="20.0" height="10.0"/><rect x="60.0" y="360.0" width="30.0" height="10.0"/><rect x="190.0" y="360.0" width="30.0" height="10.0"/><rect x="230.0" y="360.0" width="10.0" height="10.0"/><rect x="300.0" y="360.0" width="30.0" height="10.0"/><rect x="340.0" y="360.0" width="10.0" height="10.0"/><rect x="360.0" y="360.0" width="20.0" height="10.0"/><rect x="410.0" y="360.0" width="20.0" height="10.0"/><rect x="460.0" y="360.0" width="110.0" height="10.0"/><rect x="580.0" y="360.0" width="10.0" height="10.0"/><rect x="80.0" y="370.0" width="20.0" height="10.0"/><rect x="120.0" y="370.0" width="20.0" height="10.0"/><rect x="150.0" y="370.0" width="10.0" height="10.0"/><rect x="180.0" y="370.0" width="10.0" height="10.0"/><rect x="200.0" y="370.0" width="10.0" height="10.0"/><rect x="220.0" y="370.0" width="10.0" height="10.0"/><rect x="240.0" y="370.0" width="30.0" height="10.0"/><rect x="280.0" y="370.0" width="20.0" height="10.0"/><rect x="350.0" y="370.0" width="10.0" height="10.0"/><rect x="370.0" y="370.0" width="10.0" height="10.0"/><rect x="400.0" y="370.0" width="10.0" height="10.0"/><rect x="420.0" y="370.0" width="10.0" height="10.0"/><rect x="480.0" y="370.0" width="20.0" height="10.0"/><rect x="510.0" y="370.0" width="50.0" height="10.0"/><rect x="0.0" y="380.0" width="20.0" height="10.0"/><rect x="40.0" y="380.0" width="30.0" height="10.0"/><rect x="80.0" y="380.0" width="10.0" height="10.0"/><rect x="110.0" y="380.0" width="10.0" height="10.0"/><rect x="170.0" y="380.0" width="10.0" height="10.0"/><rect x="220.0" y="380.0" width="30.0" height="10.0"/><rect x="270.0" y="380.0" width="40.0" height="10.0"/><rect x="320.0" y="380.0" width="30.0" height="10.0"/><rect x="360.0" y="380.0" width="60.0" height="10.0"/><rect x="450.0" y="380.0" width="30.0" height="10.0"/><rect x="490.0" y="380.0" width="20.0" height="10.0"/><rect x="520.0" y="380.0" width="30.0" height="10.0"/><rect x="570.0" y="380.0" width="10.0" height="10.0"/><rect x="590.0" y="380.0" width="10.0" height="10.0"/><rect x="30.0" y="390.0" width="10.0" height="10.0"/><rect x="50.0" y="390.0" width="10.0" height="10.0"/><rect x="80.0" y="390.0" width="20.0" height="10.0"/><rect x="120.0" y="390.0" width="60.0" height="10.0"/><rect x="220.0" y="390.0" width="40.0" height="10.0"/><rect x="270.0" y="390.0" width="20.0" height="10.0"/><rect x="310.0" y="390.0" width="10.0" height="10.0"/><rect x="360.0" y="390.0" width="10.0" height="10.0"/><rect x="400.0" y="390.0" width="10.0" height="10.0"/><rect x="420.0" y="390.0" width="30.0" height="10.0"/><rect x="490.0" y="390.0" width="10.0" height="10.0"/><rect x="520.0" y="390.0" width="20.0" height="10.0"/><rect x="600.0" y="390.0" width="10.0" height="20.0"/><rect x="20.0" y="400.0" width="10.0" height="10.0"/><rect x="40.0" y="400.0" width="10.0" height="10.0"/><rect x="60.0" y="400.0" width="10.0" height="10.0"/><rect x="90.0" y="400.0" width="20.0" height="10.0"/><rect x="120.0" y="400.0" width="10.0" height="10.0"/><rect x="140.0" y="400.0" width="10.0" height="10.0"/><rect x="160.0" y="400.0" width="40.0" height="10.0"/><rect x="230.0" y="400.0" width="20.0" height="10.0"/><rect x="280.0" y="400.0" width="40.0" height="10.0"/><rect x="330.0" y="400.0" width="40.0" height="10.0"/><rect x="380.0" y="400.0" width="10.0" height="10.0"/><rect x="410.0" y="400.0" width="10.0" height="10.0"/><rect x="430.0" y="400.0" width="10.0" height="10.0"/><rect x="470.0" y="400.0" width="20.0" height="10.0"/><rect x="500.0" y="400.0" width="50.0" height="10.0"/><rect x="560.0" y="400.0" width="10.0" height="10.0"/><rect x="580.0" y="400.0" width="10.0" height="10.0"/><rect x="10.0" y="410.0" width="10.0" height="20.0"/><rect x="80.0" y="410.0" width="20.0" height="10.0"/><rect x="120.0" y="410.0" width="20.0" height="10.0"/><rect x="150.0" y="410.0" width="20.0" height="10.0"/><rect x="200.0" y="410.0" width="30.0" height="10.0"/><rect x="240.0" y="410.0" width="20.0" height="10.0"/><rect x="280.0" y="410.0" width="10.0" height="10.0"/><rect x="320.0" y="410.0" width="10.0" height="20.0"/><rect x="350.0" y="410.0" width="30.0" height="10.0"/><rect x="390.0" y="410.0" width="50.0" height="10.0"/><rect x="480.0" y="410.0" width="20.0" height="10.0"/><rect x="510.0" y="410.0" width="10.0" height="10.0"/><rect x="530.0" y="410.0" width="10.0" height="10.0"/><rect x="550.0" y="410.0" width="10.0" height="10.0"/><rect x="570.0" y="410.0" width="10.0" height="10.0"/><rect x="590.0" y="410.0" width="10.0" height="10.0"/><rect x="30.0" y="420.0" width="20.0" height="10.0"/><rect x="60.0" y="420.0" width="50.0" height="10.0"/><rect x="120.0" y="420.0" width="10.0" height="10.0"/><rect x="150.0" y="420.0" width="10.0" height="10.0"/><rect x="170.0" y="420.0" width="50.0" height="10.0"/><rect x="230.0" y="420.0" width="30.0" height="10.0"/><rect x="270.0" y="420.0" width="20.0" height="10.0"/><rect x="300.0" y="420.0" width="10.0" height="10.0"/><rect x="340.0" y="420.0" width="30.0" height="10.0"/><rect x="380.0" y="420.0" width="20.0" height="10.0"/><rect x="410.0" y="420.0" width="10.0" height="10.0"/><rect x="430.0" y="420.0" width="10.0" height="10.0"/><rect x="450.0" y="420.0" width="10.0" height="10.0"/><rect x="490.0" y="420.0" width="10.0" height="20.0"/><rect x="530.0" y="420.0" width="20.0" height="10.0"/><rect x="560.0" y="420.0" width="10.0" height="20.0"/><rect x="590.0" y="420.0" width="20.0" height="10.0"/><rect x="0.0" y="430.0" width="10.0" height="10.0"/><rect x="20.0" y="430.0" width="10.0" height="10.0"/><rect x="50.0" y="430.0" width="10.0" height="10.0"/><rect x="70.0" y="430.0" width="40.0" height="10.0"/><rect x="130.0" y="430.0" width="30.0" height="10.0"/><rect x="170.0" y="430.0" width="10.0" height="10.0"/><rect x="190.0" y="430.0" width="20.0" height="10.0"/><rect x="220.0" y="430.0" width="10.0" height="10.0"/><rect x="240.0" y="430.0" width="50.0" height="10.0"/><rect x="300.0" y="430.0" width="20.0" height="10.0"/><rect x="380.0" y="430.0" width="70.0" height="10.0"/><rect x="520.0" y="430.0" width="10.0" height="10.0"/><rect x="590.0" y="430.0" width="10.0" height="10.0"/><rect x="0.0" y="440.0" width="30.0" height="10.0"/><rect x="60.0" y="440.0" width="10.0" height="10.0"/><rect x="80.0" y="440.0" width="20.0" height="10.0"/><rect x="110.0" y="440.0" width="30.0" height="10.0"/><rect x="150.0" y="440.0" width="40.0" height="10.0"/><rect x="200.0" y="440.0" width="20.0" height="10.0"/><rect x="240.0" y="440.0" width="20.0" height="10.0"/><rect x="280.0" y="440.0" width="30.0" height="10.0"/><rect x="320.0" y="440.0" width="20.0" height="10.0"/><rect x="350.0" y="440.0" width="40.0" height="10.0"/><rect x="410.0" y="440.0" width="30.0" height="10.0"/><rect x="460.0" y="440.0" width="30.0" height="10.0"/><rect x="510.0" y="440.0" width="30.0" height="10.0"/><rect x="550.0" y="440.0" width="20.0" height="10.0"/><rect x="580.0" y="440.0" width="10.0" height="10.0"/><rect x="600.0" y="440.0" width="10.0" height="20.0"/><rect x="30.0" y="450.0" width="20.0" height="10.0"/><rect x="70.0" y="450.0" width="30.0" height="10.0"/><rect x="120.0" y="450.0" width="20.0" height="10.0"/><rect x="170.0" y="450.0" width="10.0" height="10.0"/><rect x="190.0" y="450.0" width="10.0" height="10.0"/><rect x="210.0" y="450.0" width="40.0" height="10.0"/><rect x="260.0" y="450.0" width="20.0" height="10.0"/><rect x="290.0" y="450.0" width="20.0" height="10.0"/><rect x="330.0" y="450.0" width="10.0" height="10.0"/><rect x="370.0" y="450.0" width="10.0" height="10.0"/><rect x="410.0" y="450.0" width="20.0" height="10.0"/><rect x="440.0" y="450.0" width="10.0" height="10.0"/><rect x="490.0" y="450.0" width="10.0" height="10.0"/><rect x="520.0" y="450.0" width="10.0" height="10.0"/><rect x="570.0" y="450.0" width="10.0" height="10.0"/><rect x="20.0" y="460.0" width="50.0" height="10.0"/><rect x="90.0" y="460.0" width="10.0" height="10.0"/><rect x="110.0" y="460.0" width="10.0" height="10.0"/><rect x="130.0" y="460.0" width="10.0" height="10.0"/><rect x="150.0" y="460.0" width="10.0" height="10.0"/><rect x="220.0" y="460.0" width="40.0" height="10.0"/><rect x="270.0" y="460.0" width="30.0" height="10.0"/><rect x="320.0" y="460.0" width="20.0" height="10.0"/><rect x="350.0" y="460.0" width="20.0" height="10.0"/><rect x="380.0" y="460.0" width="10.0" height="10.0"/><rect x="400.0" y="460.0" width="10.0" height="10.0"/><rect x="450.0" y="460.0" width="20.0" height="10.0"/><rect x="480.0" y="460.0" width="20.0" height="10.0"/><rect x="530.0" y="460.0" width="30.0" height="10.0"/><rect x="570.0" y="460.0" width="40.0" height="10.0"/><rect x="10.0" y="470.0" width="20.0" height="10.0"/><rect x="70.0" y="470.0" width="10.0" height="10.0"/><rect x="110.0" y="470.0" width="60.0" height="10.0"/><rect x="180.0" y="470.0" width="10.0" height="20.0"/><rect x="200.0" y="470.0" width="20.0" height="10.0"/><rect x="240.0" y="470.0" width="20.0" height="20.0"/><rect x="270.0" y="470.0" width="10.0" height="10.0"/><rect x="310.0" y="470.0" width="10.0" height="10.0"/><rect x="330.0" y="470.0" width="10.0" height="10.0"/><rect x="390.0" y="470.0" width="20.0" height="10.0"/><rect x="440.0" y="470.0" width="20.0" height="10.0"/><rect x="490.0" y="470.0" width="10.0" height="10.0"/><rect x="520.0" y="470.0" width="10.0" height="10.0"/><rect x="550.0" y="470.0" width="10.0" height="10.0"/><rect x="590.0" y="470.0" width="20.0" height="10.0"/><rect x="0.0" y="480.0" width="30.0" height="10.0"/><rect x="40.0" y="480.0" width="10.0" height="10.0"/><rect x="60.0" y="480.0" width="20.0" height="10.0"/><rect x="90.0" y="480.0" width="10.0" height="10.0"/><rect x="110.0" y="480.0" width="10.0" height="10.0"/><rect x="160.0" y="480.0" width="10.0" height="10.0"/><rect x="210.0" y="480.0" width="10.0" height="10.0"/><rect x="270.0" y="480.0" width="30.0" height="10.0"/><rect x="350.0" y="480.0" width="30.0" height="10.0"/><rect x="390.0" y="480.0" width="10.0" height="20.0"/><rect x="430.0" y="480.0" width="10.0" height="10.0"/><rect x="460.0" y="480.0" width="80.0" height="10.0"/><rect x="550.0" y="480.0" width="40.0" height="10.0"/><rect x="600.0" y="480.0" width="10.0" height="20.0"/><rect x="10.0" y="490.0" width="50.0" height="10.0"/><rect x="70.0" y="490.0" width="10.0" height="10.0"/><rect x="90.0" y="490.0" width="20.0" height="10.0"/><rect x="150.0" y="490.0" width="40.0" height="10.0"/><rect x="220.0" y="490.0" width="70.0" height="10.0"/><rect x="300.0" y="490.0" width="20.0" height="10.0"/><rect x="360.0" y="490.0" width="20.0" height="10.0"/><rect x="410.0" y="490.0" width="20.0" height="10.0"/><rect x="470.0" y="490.0" width="10.0" height="10.0"/><rect x="510.0" y="490.0" width="30.0" height="10.0"/><rect x="550.0" y="490.0" width="10.0" height="10.0"/><rect x="570.0" y="490.0" width="10.0" height="10.0"/><rect x="20.0" y="500.0" width="70.0" height="10.0"/><rect x="110.0" y="500.0" width="10.0" height="10.0"/><rect x="130.0" y="500.0" width="40.0" height="10.0"/><rect x="180.0" y="500.0" width="50.0" height="10.0"/><rect x="240.0" y="500.0" width="10.0" height="10.0"/><rect x="270.0" y="500.0" width="10.0" height="10.0"/><rect x="300.0" y="500.0" width="10.0" height="10.0"/><rect x="330.0" y="500.0" width="70.0" height="10.0"/><rect x="410.0" y="500.0" width="30.0" height="10.0"/><rect x="460.0" y="500.0" width="20.0" height="10.0"/><rect x="500.0" y="500.0" width="10.0" height="10.0"/><rect x="520.0" y="500.0" width="10.0" height="10.0"/><rect x="540.0" y="500.0" width="30.0" height="10.0"/><rect x="590.0" y="500.0" width="20.0" height="10.0"/><rect x="0.0" y="510.0" width="30.0" height="10.0"/><rect x="40.0" y="510.0" width="10.0" height="10.0"/><rect x="80.0" y="510.0" width="20.0" height="10.0"/><rect x="110.0" y="510.0" width="60.0" height="10.0"/><rect x="180.0" y="510.0" width="10.0" height="20.0"/><rect x="210.0" y="510.0" width="10.0" height="10.0"/><rect x="260.0" y="510.0" width="10.0" height="10.0"/><rect x="280.0" y="510.0" width="50.0" height="10.0"/><rect x="350.0" y="510.0" width="10.0" height="10.0"/><rect x="400.0" y="510.0" width="20.0" height="10.0"/><rect x="440.0" y="510.0" width="10.0" height="10.0"/><rect x="460.0" y="510.0" width="10.0" height="10.0"/><rect x="490.0" y="510.0" width="10.0" height="10.0"/><rect x="550.0" y="510.0" width="30.0" height="10.0"/><rect x="590.0" y="510.0" width="10.0" height="10.0"/><rect x="0.0" y="520.0" width="40.0" height="10.0"/><rect x="60.0" y="520.0" width="30.0" height="10.0"/><rect x="100.0" y="520.0" width="10.0" height="20.0"/><rect x="130.0" y="520.0" width="10.0" height="10.0"/><rect x="150.0" y="520.0" width="20.0" height="10.0"/><rect x="200.0" y="520.0" width="20.0" height="10.0"/><rect x="250.0" y="520.0" width="10.0" height="10.0"/><rect x="270.0" y="520.0" width="60.0" height="10.0"/><rect x="340.0" y="520.0" width="10.0" height="10.0"/><rect x="360.0" y="520.0" width="20.0" height="10.0"/><rect x="410.0" y="520.0" width="10.0" height="10.0"/><rect x="470.0" y="520.0" width="20.0" height="10.0"/><rect x="500.0" y="520.0" width="90.0" height="10.0"/><rect x="600.0" y="520.0" width="10.0" height="20.0"/><rect x="80.0" y="530.0" width="10.0" height="10.0"/><rect x="120.0" y="530.0" width="20.0" height="10.0"/><rect x="150.0" y="530.0" width="40.0" height="10.0"/><rect x="210.0" y="530.0" width="20.0" height="10.0"/><rect x="240.0" y="530.0" width="10.0" height="20.0"/><rect x="260.0" y="530.0" width="30.0" height="10.0"/><rect x="320.0" y="530.0" width="10.0" height="20.0"/><rect x="350.0" y="530.0" width="30.0" height="10.0"/><rect x="400.0" y="530.0" width="30.0" height="10.0"/><rect x="490.0" y="530.0" width="10.0" height="10.0"/><rect x="510.0" y="530.0" width="20.0" height="10.0"/><rect x="560.0" y="530.0" width="20.0" height="20.0"/><rect x="0.0" y="540.0" width="70.0" height="10.0"/><rect x="120.0" y="540.0" width="10.0" height="30.0"/><rect x="170.0" y="540.0" width="10.0" height="10.0"/><rect x="190.0" y="540.0" width="30.0" height="10.0"/><rect x="280.0" y="540.0" width="10.0" height="20.0"/><rect x="300.0" y="540.0" width="10.0" height="10.0"/><rect x="340.0" y="540.0" width="30.0" height="10.0"/><rect x="380.0" y="540.0" width="10.0" height="10.0"/><rect x="400.0" y="540.0" width="20.0" height="10.0"/><rect x="430.0" y="540.0" width="10.0" height="20.0"/><rect x="450.0" y="540.0" width="10.0" height="10.0"/><rect x="470.0" y="540.0" width="10.0" height="10.0"/><rect x="500.0" y="540.0" width="30.0" height="10.0"/><rect x="540.0" y="540.0" width="10.0" height="10.0"/><rect x="590.0" y="540.0" width="20.0" height="20.0"/><rect x="0.0" y="550.0" width="10.0" height="50.0"/><rect x="60.0" y="550.0" width="10.0" height="50.0"/><rect x="80.0" y="550.0" width="30.0" height="10.0"/><rect x="140.0" y="550.0" width="20.0" height="20.0"/><rect x="200.0" y="550.0" width="10.0" height="10.0"/><rect x="230.0" y="550.0" width="40.0" height="10.0"/><rect x="320.0" y="550.0" width="40.0" height="10.0"/><rect x="370.0" y="550.0" width="10.0" height="10.0"/><rect x="390.0" y="550.0" width="10.0" height="10.0"/><rect x="410.0" y="550.0" width="10.0" height="10.0"/><rect x="480.0" y="550.0" width="20.0" height="10.0"/><rect x="510.0" y="550.0" width="20.0" height="10.0"/><rect x="560.0" y="550.0" width="10.0" height="10.0"/><rect x="20.0" y="560.0" width="30.0" height="30.0"/><rect x="80.0" y="560.0" width="20.0" height="10.0"/><rect x="180.0" y="560.0" width="10.0" height="10.0"/><rect x="230.0" y="560.0" width="10.0" height="10.0"/><rect x="250.0" y="560.0" width="10.0" height="10.0"/><rect x="270.0" y="560.0" width="60.0" height="10.0"/><rect x="340.0" y="560.0" width="30.0" height="10.0"/><rect x="410.0" y="560.0" width="30.0" height="10.0"/><rect x="470.0" y="560.0" width="30.0" height="10.0"/><rect x="520.0" y="560.0" width="80.0" height="10.0"/><rect x="80.0" y="570.0" width="10.0" height="20.0"/><rect x="100.0" y="570.0" width="10.0" height="20.0"/><rect x="140.0" y="570.0" width="60.0" height="10.0"/><rect x="220.0" y="570.0" width="10.0" height="10.0"/><rect x="240.0" y="570.0" width="10.0" height="10.0"/><rect x="260.0" y="570.0" width="50.0" height="10.0"/><rect x="320.0" y="570.0" width="10.0" height="10.0"/><rect x="400.0" y="570.0" width="40.0" height="10.0"/><rect x="490.0" y="570.0" width="10.0" height="10.0"/><rect x="510.0" y="570.0" width="40.0" height="10.0"/><rect x="560.0" y="570.0" width="10.0" height="10.0"/><rect x="600.0" y="570.0" width="10.0" height="30.0"/><rect x="120.0" y="580.0" width="10.0" height="20.0"/><rect x="170.0" y="580.0" width="30.0" height="10.0"/><rect x="210.0" y="580.0" width="20.0" height="10.0"/><rect x="250.0" y="580.0" width="20.0" height="10.0"/><rect x="280.0" y="580.0" width="10.0" height="10.0"/><rect x="310.0" y="580.0" width="40.0" height="10.0"/><rect x="360.0" y="580.0" width="10.0" height="10.0"/><rect x="380.0" y="580.0" width="20.0" height="10.0"/><rect x="430.0" y="580.0" width="10.0" height="10.0"/><rect x="460.0" y="580.0" width="50.0" height="10.0"/><rect x="540.0" y="580.0" width="20.0" height="10.0"/><rect x="570.0" y="580.0" width="10.0" height="10.0"/><rect x="90.0" y="590.0" width="20.0" height="10.0"/><rect x="140.0" y="590.0" width="10.0" height="10.0"/><rect x="160.0" y="590.0" width="10.0" height="20.0"/><rect x="190.0" y="590.0" width="20.0" height="10.0"/><rect x="230.0" y="590.0" width="10.0" height="10.0"/><rect x="260.0" y="590.0" width="40.0" height="10.0"/><rect x="310.0" y="590.0" width="10.0" height="10.0"/><rect x="330.0" y="590.0" width="30.0" height="10.0"/><rect x="370.0" y="590.0" width="10.0" height="10.0"/><rect x="390.0" y="590.0" width="20.0" height="10.0"/><rect x="440.0" y="590.0" width="10.0" height="10.0"/><rect x="460.0" y="590.0" width="20.0" height="10.0"/><rect x="510.0" y="590.0" width="10.0" height="10.0"/><rect x="530.0" y="590.0" width="20.0" height="10.0"/><rect x="560.0" y="590.0" width="10.0" height="10.0"/><rect x="0.0" y="600.0" width="70.0" height="10.0"/><rect x="80.0" y="600.0" width="10.0" height="10.0"/><rect x="110.0" y="600.0" width="10.0" height="10.0"/><rect x="190.0" y="600.0" width="10.0" height="10.0"/><rect x="210.0" y="600.0" width="20.0" height="10.0"/><rect x="240.0" y="600.0" width="30.0" height="10.0"/><rect x="290.0" y="600.0" width="30.0" height="10.0"/><rect x="330.0" y="600.0" width="10.0" height="10.0"/><rect x="360.0" y="600.0" width="10.0" height="10.0"/><rect x="380.0" y="600.0" width="10.0" height="10.0"/><rect x="410.0" y="600.0" width="30.0" height="10.0"/><rect x="450.0" y="600.0" width="10.0" height="10.0"/><rect x="470.0" y="600.0" width="40.0" height="10.0"/><rect x="580.0" y="600.0" width="30.0" height="10.0"/></g></svg>
